<svg width="20" height="20" viewBox="0 0 20 20" fill="none" xmlns="http://www.w3.org/2000/svg">
<path d="M9.99987 1.66675C5.40487 1.66675 1.66653 5.40508 1.66653 10.0001C1.66653 14.5951 5.40487 18.3334 9.99987 18.3334C14.5949 18.3334 18.3332 14.5951 18.3332 10.0001C18.3332 5.40508 14.5949 1.66675 9.99987 1.66675ZM9.99987 16.6667C6.32403 16.6667 3.3332 13.6759 3.3332 10.0001C3.3332 6.32425 6.32403 3.33341 9.99987 3.33341C13.6757 3.33341 16.6665 6.32425 16.6665 10.0001C16.6665 13.6759 13.6757 16.6667 9.99987 16.6667Z" fill="#111111" fill-opacity="0.8"/>
<path d="M10.8332 5.83325H9.16653V10.8333H14.1665V9.16659H10.8332V5.83325Z" fill="#111111" fill-opacity="0.8"/>
</svg>
