<svg width="20" height="20" viewBox="0 0 20 20" fill="none" xmlns="http://www.w3.org/2000/svg">
<path d="M9.99981 1.66675C6.32398 1.66675 3.33314 4.65758 3.33314 8.32925C3.30898 13.7001 9.26314 17.9992 9.51648 18.1784C9.65761 18.2789 9.82656 18.3329 9.99981 18.3329C10.1731 18.3329 10.342 18.2789 10.4831 18.1784C10.7365 17.9992 16.6906 13.7001 16.6665 8.33342C16.6665 4.65758 13.6756 1.66675 9.99981 1.66675ZM9.99981 16.4459C8.65731 15.3559 4.98231 12.0342 4.99981 8.33342C4.99981 5.57592 7.24231 3.33341 9.99981 3.33341C12.7573 3.33341 14.9998 5.57592 14.9998 8.33758C15.0173 12.0351 11.3431 15.3568 9.99981 16.4459Z" fill="#111111"/>
<path d="M9.16677 9.65489L7.25594 7.74406L6.07761 8.92239L9.16677 12.0116L13.9226 7.25573L12.7443 6.07739L9.16677 9.65489Z" fill="#111111"/>
</svg>
