<svg width="186" height="24" viewBox="0 0 186 24" fill="none" xmlns="http://www.w3.org/2000/svg">
<path d="M0 23.5312V0.984375H3.625L16.8125 19.9531L13 16.7969H14.7031V0.984375H18.7031V23.5312H15.1094L1.90625 4.51562L5.71875 7.65625H4V23.5312H0ZM28.985 23.8594C27.36 23.8594 25.9485 23.5156 24.7506 22.8281C23.5527 22.1302 22.6204 21.1406 21.9538 19.8594C21.2975 18.5677 20.9694 17.0312 20.9694 15.25V15.2188C20.9694 13.4479 21.3027 11.9219 21.9694 10.6406C22.636 9.34896 23.5683 8.35938 24.7663 7.67188C25.9642 6.97396 27.3652 6.625 28.9694 6.625C30.584 6.625 31.9902 6.97396 33.1881 7.67188C34.3965 8.35938 35.334 9.34375 36.0006 10.625C36.6673 11.9062 37.0006 13.4375 37.0006 15.2188V15.25C37.0006 17.0417 36.6673 18.5833 36.0006 19.875C35.3444 21.1562 34.4173 22.1406 33.2194 22.8281C32.0215 23.5156 30.61 23.8594 28.985 23.8594ZM29.0006 20.7188C29.8235 20.7188 30.5371 20.5052 31.1413 20.0781C31.7454 19.651 32.209 19.0312 32.5319 18.2188C32.8652 17.3958 33.0319 16.4062 33.0319 15.25V15.2188C33.0319 14.0729 32.8652 13.0938 32.5319 12.2812C32.1985 11.4688 31.7246 10.849 31.11 10.4219C30.5058 9.99479 29.7923 9.78125 28.9694 9.78125C28.1673 9.78125 27.459 9.99479 26.8444 10.4219C26.2402 10.849 25.7663 11.4688 25.4225 12.2812C25.0892 13.0938 24.9225 14.0729 24.9225 15.2188V15.25C24.9225 16.4062 25.0892 17.3958 25.4225 18.2188C25.7663 19.0312 26.2402 19.651 26.8444 20.0781C27.459 20.5052 28.1777 20.7188 29.0006 20.7188ZM38.8606 23.5312V6.96875H42.7356V9.82812H42.8294C43.0794 8.82812 43.5325 8.04688 44.1888 7.48438C44.8554 6.91146 45.6679 6.625 46.6263 6.625C46.8658 6.625 47.095 6.64062 47.3138 6.67188C47.5325 6.70312 47.7148 6.73958 47.8606 6.78125V10.2969C47.7044 10.2344 47.4804 10.1823 47.1888 10.1406C46.9075 10.099 46.6002 10.0781 46.2669 10.0781C45.5377 10.0781 44.9075 10.2292 44.3763 10.5312C43.845 10.8229 43.4388 11.2552 43.1575 11.8281C42.8763 12.401 42.7356 13.099 42.7356 13.9219V23.5312H38.8606ZM54.7519 23.8594C53.356 23.8594 52.1425 23.5156 51.1113 22.8281C50.0904 22.1302 49.2988 21.1354 48.7363 19.8438C48.1842 18.5521 47.9081 17.0208 47.9081 15.25V15.2344C47.9081 13.4531 48.1894 11.9219 48.7519 10.6406C49.3144 9.34896 50.106 8.35938 51.1269 7.67188C52.1477 6.97396 53.3508 6.625 54.7363 6.625C55.5279 6.625 56.2519 6.75521 56.9081 7.01562C57.5748 7.26562 58.1633 7.63021 58.6738 8.10938C59.1842 8.57812 59.5956 9.14583 59.9081 9.8125H60.0019V0.984375H63.8769V23.5312H60.0019V20.7188H59.9081C59.606 21.375 59.1998 21.9375 58.6894 22.4062C58.1894 22.8646 57.606 23.224 56.9394 23.4844C56.2831 23.7344 55.554 23.8594 54.7519 23.8594ZM55.9238 20.5938C56.7258 20.5938 57.4342 20.375 58.0488 19.9375C58.6633 19.5 59.1425 18.8802 59.4863 18.0781C59.83 17.276 60.0019 16.3333 60.0019 15.25V15.2344C60.0019 14.151 59.8248 13.2135 59.4706 12.4219C59.1269 11.6198 58.6477 11 58.0331 10.5625C57.429 10.125 56.7258 9.90625 55.9238 9.90625C55.0904 9.90625 54.3665 10.125 53.7519 10.5625C53.1477 10.9896 52.679 11.599 52.3456 12.3906C52.0227 13.1823 51.8613 14.1302 51.8613 15.2344V15.25C51.8613 16.3438 52.0227 17.2917 52.3456 18.0938C52.679 18.8958 53.1477 19.5156 53.7519 19.9531C54.3665 20.3802 55.0904 20.5938 55.9238 20.5938ZM73.7994 23.8594C72.1431 23.8594 70.716 23.5104 69.5181 22.8125C68.3306 22.1146 67.4192 21.125 66.7838 19.8438C66.1483 18.5625 65.8306 17.0469 65.8306 15.2969V15.2812C65.8306 13.5417 66.1483 12.026 66.7838 10.7344C67.4296 9.43229 68.3306 8.42188 69.4869 7.70312C70.6535 6.98438 72.0285 6.625 73.6119 6.625C75.1848 6.625 76.5442 6.97396 77.69 7.67188C78.8463 8.35938 79.7317 9.32812 80.3463 10.5781C80.9713 11.8281 81.2838 13.2865 81.2838 14.9531V16.2031H67.7525V13.6094H79.4244L77.5494 16.0312V14.5312C77.5494 13.4479 77.3827 12.5469 77.0494 11.8281C76.716 11.1094 76.2577 10.5729 75.6744 10.2188C75.091 9.85417 74.4192 9.67188 73.6588 9.67188C72.8879 9.67188 72.2004 9.85938 71.5963 10.2344C71.0025 10.599 70.5338 11.1458 70.19 11.875C69.8567 12.6042 69.69 13.4896 69.69 14.5312V16.0312C69.69 17.0417 69.8567 17.9062 70.19 18.625C70.5338 19.3333 71.0181 19.8802 71.6431 20.2656C72.2681 20.6406 73.0129 20.8281 73.8775 20.8281C74.5233 20.8281 75.091 20.7292 75.5806 20.5312C76.0702 20.3229 76.4713 20.0573 76.7838 19.7344C77.1067 19.4115 77.3306 19.0625 77.4556 18.6875L77.4869 18.5781H81.1119L81.0806 18.75C80.9452 19.3854 80.6952 20.0104 80.3306 20.625C79.966 21.2292 79.4765 21.776 78.8619 22.2656C78.2473 22.7552 77.5181 23.1458 76.6744 23.4375C75.8306 23.7188 74.8723 23.8594 73.7994 23.8594ZM74.69 5.09375H71.9869L74.7681 0H78.3775L74.69 5.09375ZM89.3163 23.5312V0.984375H93.9725L100.879 18.2188H100.988L107.894 0.984375H112.551V23.5312H108.926V7.48438H107.066L111.176 1.60938L102.301 23.5312H99.5663L90.6913 1.60938L94.8006 7.48438H92.9413V23.5312H89.3163ZM119.989 23.8125C118.895 23.8125 117.926 23.6042 117.082 23.1875C116.249 22.7604 115.598 22.1719 115.129 21.4219C114.671 20.6615 114.442 19.7917 114.442 18.8125V18.7812C114.442 17.7917 114.687 16.9479 115.176 16.25C115.676 15.5417 116.395 14.9844 117.332 14.5781C118.27 14.1615 119.405 13.9115 120.739 13.8281L127.067 13.4375V16.0156L121.286 16.375C120.327 16.4375 119.593 16.6667 119.082 17.0625C118.572 17.4583 118.317 17.9844 118.317 18.6406V18.6562C118.317 19.3333 118.572 19.8698 119.082 20.2656C119.603 20.651 120.291 20.8438 121.145 20.8438C121.895 20.8438 122.562 20.6927 123.145 20.3906C123.739 20.0885 124.207 19.6771 124.551 19.1562C124.895 18.6354 125.067 18.0469 125.067 17.3906V12.4219C125.067 11.5885 124.801 10.9323 124.27 10.4531C123.749 9.96354 122.994 9.71875 122.004 9.71875C121.088 9.71875 120.353 9.91667 119.801 10.3125C119.249 10.6979 118.905 11.1979 118.77 11.8125L118.739 11.9531H115.145L115.161 11.7656C115.244 10.7865 115.572 9.91146 116.145 9.14062C116.718 8.35938 117.51 7.74479 118.52 7.29688C119.541 6.84896 120.749 6.625 122.145 6.625C123.53 6.625 124.728 6.85417 125.739 7.3125C126.76 7.77083 127.546 8.41146 128.098 9.23438C128.661 10.0573 128.942 11.026 128.942 12.1406V23.5312H125.067V20.9844H124.973C124.661 21.5573 124.254 22.0573 123.754 22.4844C123.254 22.9115 122.681 23.2396 122.036 23.4688C121.4 23.6979 120.718 23.8125 119.989 23.8125ZM131.568 23.5312V6.96875H135.458V23.5312H131.568ZM133.505 4.59375C132.901 4.59375 132.39 4.38542 131.974 3.96875C131.557 3.55208 131.349 3.05208 131.349 2.46875C131.349 1.875 131.557 1.375 131.974 0.96875C132.39 0.552083 132.901 0.34375 133.505 0.34375C134.12 0.34375 134.635 0.552083 135.052 0.96875C135.469 1.375 135.677 1.875 135.677 2.46875C135.677 3.05208 135.469 3.55208 135.052 3.96875C134.635 4.38542 134.12 4.59375 133.505 4.59375ZM144.599 23.8594C143.151 23.8594 141.912 23.6458 140.881 23.2188C139.86 22.7917 139.058 22.1927 138.474 21.4219C137.901 20.6406 137.553 19.7396 137.428 18.7188L137.412 18.5781H141.24L141.271 18.7188C141.417 19.4375 141.761 19.9948 142.303 20.3906C142.855 20.7865 143.625 20.9844 144.615 20.9844C145.25 20.9844 145.792 20.9062 146.24 20.75C146.688 20.5938 147.032 20.3646 147.271 20.0625C147.521 19.7604 147.646 19.4062 147.646 19V18.9844C147.646 18.4948 147.48 18.099 147.146 17.7969C146.813 17.4844 146.214 17.2292 145.349 17.0312L142.599 16.4219C141.547 16.1823 140.667 15.8542 139.959 15.4375C139.25 15.0208 138.719 14.5052 138.365 13.8906C138.011 13.2656 137.834 12.5417 137.834 11.7188V11.7031C137.834 10.6927 138.11 9.80729 138.662 9.04688C139.214 8.28646 139.99 7.69271 140.99 7.26562C141.99 6.83854 143.151 6.625 144.474 6.625C145.849 6.625 147.026 6.85417 148.006 7.3125C148.985 7.77083 149.74 8.38542 150.271 9.15625C150.813 9.92708 151.105 10.7917 151.146 11.75L151.162 11.9219H147.537L147.521 11.7969C147.438 11.1302 147.136 10.5833 146.615 10.1562C146.094 9.71875 145.381 9.5 144.474 9.5C143.901 9.5 143.401 9.58333 142.974 9.75C142.558 9.91667 142.235 10.151 142.006 10.4531C141.787 10.7552 141.678 11.1094 141.678 11.5156V11.5312C141.678 11.8438 141.756 12.125 141.912 12.375C142.068 12.625 142.318 12.8438 142.662 13.0312C143.006 13.2083 143.464 13.3646 144.037 13.5L146.787 14.1094C148.506 14.4948 149.73 15.0469 150.459 15.7656C151.188 16.474 151.553 17.4271 151.553 18.625V18.6406C151.553 19.6823 151.256 20.599 150.662 21.3906C150.068 22.1719 149.245 22.7812 148.193 23.2188C147.151 23.6458 145.954 23.8594 144.599 23.8594ZM160.725 23.8594C159.1 23.8594 157.689 23.5156 156.491 22.8281C155.293 22.1302 154.36 21.1406 153.694 19.8594C153.038 18.5677 152.709 17.0312 152.709 15.25V15.2188C152.709 13.4479 153.043 11.9219 153.709 10.6406C154.376 9.34896 155.308 8.35938 156.506 7.67188C157.704 6.97396 159.105 6.625 160.709 6.625C162.324 6.625 163.73 6.97396 164.928 7.67188C166.136 8.35938 167.074 9.34375 167.741 10.625C168.407 11.9062 168.741 13.4375 168.741 15.2188V15.25C168.741 17.0417 168.407 18.5833 167.741 19.875C167.084 21.1562 166.157 22.1406 164.959 22.8281C163.761 23.5156 162.35 23.8594 160.725 23.8594ZM160.741 20.7188C161.564 20.7188 162.277 20.5052 162.881 20.0781C163.485 19.651 163.949 19.0312 164.272 18.2188C164.605 17.3958 164.772 16.4062 164.772 15.25V15.2188C164.772 14.0729 164.605 13.0938 164.272 12.2812C163.939 11.4688 163.465 10.849 162.85 10.4219C162.246 9.99479 161.532 9.78125 160.709 9.78125C159.907 9.78125 159.199 9.99479 158.584 10.4219C157.98 10.849 157.506 11.4688 157.163 12.2812C156.829 13.0938 156.663 14.0729 156.663 15.2188V15.25C156.663 16.4062 156.829 17.3958 157.163 18.2188C157.506 19.0312 157.98 19.651 158.584 20.0781C159.199 20.5052 159.918 20.7188 160.741 20.7188ZM170.601 23.5312V6.96875H174.476V9.5625H174.569C174.996 8.66667 175.632 7.95312 176.476 7.42188C177.33 6.89062 178.382 6.625 179.632 6.625C181.455 6.625 182.861 7.17708 183.851 8.28125C184.851 9.38542 185.351 10.8958 185.351 12.8125V23.5312H181.46V13.5938C181.46 12.4167 181.184 11.5104 180.632 10.875C180.08 10.2292 179.252 9.90625 178.148 9.90625C177.408 9.90625 176.762 10.0781 176.21 10.4219C175.658 10.7552 175.231 11.224 174.929 11.8281C174.627 12.4219 174.476 13.1198 174.476 13.9219V23.5312H170.601Z" fill="#111111"/>
</svg>
