<svg width="357" height="357" viewBox="0 0 357 357" fill="none" xmlns="http://www.w3.org/2000/svg">
<g clip-path="url(#clip0_256_772)">
<rect width="357" height="357" fill="white"/>
<path d="M110.052 38.5049H100.832V32.4197C100.832 30.6883 102.236 29.2848 103.967 29.2848H110.052V38.5049Z" fill="#111111"/>
<path d="M118.996 29.2852H109.776V38.5052H118.996V29.2852Z" fill="#111111"/>
<path d="M118.72 38.5049V32.4197C118.72 30.6883 120.123 29.2848 121.855 29.2848H124.805C126.536 29.2848 127.94 30.6883 127.94 32.4197V38.5049H118.72Z" fill="#111111"/>
<path d="M136.606 31.9221V35.8775C136.606 37.3343 137.786 38.5052 139.243 38.5052H143.198C144.664 38.5052 145.835 37.325 145.835 35.8683V31.9221C145.826 30.4561 144.646 29.2852 143.189 29.2852H139.243C137.786 29.2852 136.606 30.4653 136.606 31.9221Z" fill="#111111"/>
<path d="M151.958 38.3211V38.5055H154.77V35.6934H154.585C154.585 37.1501 153.405 38.3211 151.958 38.3211Z" fill="#111111"/>
<path d="M163.712 38.5049H154.492V32.4197C154.492 30.6883 155.896 29.2848 157.627 29.2848H163.712V38.5049Z" fill="#111111"/>
<path d="M172.657 29.2852H163.437V38.5052H172.657V29.2852Z" fill="#111111"/>
<path d="M181.6 29.2852H172.38V38.5052H181.6V29.2852Z" fill="#111111"/>
<path d="M190.544 29.2852H181.324V38.5052H190.544V29.2852Z" fill="#111111"/>
<path d="M190.267 38.5049V29.2848H196.352C198.084 29.2848 199.487 30.6883 199.487 32.4197V38.5049H190.267Z" fill="#111111"/>
<path d="M217.098 38.5049V32.4197C217.098 30.6883 218.501 29.2848 220.232 29.2848H223.183C224.914 29.2848 226.318 30.6883 226.318 32.4197V38.5049H217.098Z" fill="#111111"/>
<path d="M244.204 38.5049H238.118C236.387 38.5049 234.984 37.1014 234.984 35.3701V32.4197C234.984 30.6883 236.387 29.2848 238.118 29.2848H244.204V38.5049Z" fill="#111111"/>
<path d="M243.928 38.5049V29.2848H250.013C251.744 29.2848 253.148 30.6883 253.148 32.4197V38.5049H243.928Z" fill="#111111"/>
<path d="M110.053 38.2285H100.833V47.4486H110.053V38.2285Z" fill="#111111"/>
<path d="M109.776 38.2285H118.996V44.3137C118.996 46.0451 117.593 47.4486 115.862 47.4486H109.776V38.2285Z" fill="#111111"/>
<path d="M154.769 47.4478H145.549V41.3625C145.549 39.6312 146.953 38.2277 148.684 38.2277H154.769V47.4478Z" fill="#111111"/>
<path d="M163.713 38.2285H154.493V47.4486H163.713V38.2285Z" fill="#111111"/>
<path d="M172.657 38.2285H163.437V47.4486H172.657V38.2285Z" fill="#111111"/>
<path d="M190.544 38.2285H181.324V47.4486H190.544V38.2285Z" fill="#111111"/>
<path d="M199.487 38.2285H190.267V47.4486H199.487V38.2285Z" fill="#111111"/>
<path d="M214.562 47.2644V47.4488H217.374V44.6367H217.189C217.189 46.0935 216.009 47.2644 214.562 47.2644Z" fill="#111111"/>
<path d="M226.318 38.2285H217.098V47.4486H226.318V38.2285Z" fill="#111111"/>
<path d="M226.041 47.4478V38.2277H232.126C233.857 38.2277 235.261 39.6312 235.261 41.3625V47.4478H226.041Z" fill="#111111"/>
<path d="M241.392 47.2644V47.4488H244.204V44.6367H244.02C244.02 46.0935 242.84 47.2644 241.392 47.2644Z" fill="#111111"/>
<path d="M253.148 38.2285H243.928V47.4486H253.148V38.2285Z" fill="#111111"/>
<path d="M110.052 47.1724V53.2576C110.052 54.9889 108.649 56.3924 106.917 56.3924H103.967C102.236 56.3924 100.832 54.9889 100.832 53.2576V47.1724H110.052Z" fill="#111111"/>
<path d="M154.77 47.1724V53.2576C154.77 54.9889 153.366 56.3924 151.635 56.3924H148.684C146.953 56.3924 145.549 54.9889 145.549 53.2576V47.1724H154.77Z" fill="#111111"/>
<path d="M172.657 47.1724H163.437V56.3924H172.657V47.1724Z" fill="#111111"/>
<path d="M190.544 47.1724H181.324V56.3924H190.544V47.1724Z" fill="#111111"/>
<path d="M190.267 47.1724H199.487V53.2576C199.487 54.9889 198.084 56.3924 196.352 56.3924H190.267V47.1724Z" fill="#111111"/>
<path d="M217.374 56.3911H211.288C209.557 56.3911 208.153 54.9876 208.153 53.2563V50.3059C208.153 48.5746 209.557 47.1711 211.288 47.1711H217.374V56.3911Z" fill="#111111"/>
<path d="M226.318 47.1724H217.098V56.3924H226.318V47.1724Z" fill="#111111"/>
<path d="M235.261 47.1724H226.041V56.3924H235.261V47.1724Z" fill="#111111"/>
<path d="M244.204 47.1724H234.984V56.3924H244.204V47.1724Z" fill="#111111"/>
<path d="M243.928 47.1724H253.148V53.2576C253.148 54.9889 251.744 56.3924 250.013 56.3924H243.928V47.1724Z" fill="#111111"/>
<path d="M118.995 65.335H112.91C111.179 65.335 109.775 63.9315 109.775 62.2001V59.2497C109.775 57.5184 111.179 56.1149 112.91 56.1149H118.995V65.335Z" fill="#111111"/>
<path d="M118.72 65.335V59.2497C118.72 57.5184 120.123 56.1149 121.855 56.1149H124.805C126.536 56.1149 127.94 57.5184 127.94 59.2497V65.335H118.72Z" fill="#111111"/>
<path d="M151.958 65.1507V65.3351H154.77V62.5229H154.585C154.585 63.9797 153.405 65.1507 151.958 65.1507Z" fill="#111111"/>
<path d="M163.712 65.335H154.492V59.2497C154.492 57.5184 155.896 56.1149 157.627 56.1149H163.712V65.335Z" fill="#111111"/>
<path d="M172.657 56.1157H163.437V65.3358H172.657V56.1157Z" fill="#111111"/>
<path d="M190.542 56.1157V62.201C190.542 63.9323 189.139 65.3358 187.408 65.3358H184.457C182.726 65.3358 181.322 63.9323 181.322 62.201V56.1157H190.542Z" fill="#111111"/>
<path d="M235.261 56.1157V65.3358H229.176C227.444 65.3358 226.041 63.9323 226.041 62.201V56.1157H235.261Z" fill="#111111"/>
<path d="M234.984 56.1157H244.204V62.201C244.204 63.9323 242.8 65.3358 241.069 65.3358H234.984V56.1157Z" fill="#111111"/>
<path d="M127.663 67.6955V71.6509C127.663 73.1077 128.843 74.2786 130.3 74.2786H134.255C135.721 74.2786 136.892 73.0985 136.892 71.6417V67.6955C136.883 66.2295 135.703 65.0586 134.246 65.0586H130.3C128.843 65.0586 127.663 66.2388 127.663 67.6955Z" fill="#111111"/>
<path d="M154.77 74.2788H145.549V68.1936C145.549 66.4623 146.953 65.0588 148.684 65.0588H154.77V74.2788Z" fill="#111111"/>
<path d="M163.713 65.0586H154.493V74.2786H163.713V65.0586Z" fill="#111111"/>
<path d="M172.657 65.0586H163.437V74.2786H172.657V65.0586Z" fill="#111111"/>
<path d="M208.43 74.2788H202.344C200.613 74.2788 199.21 72.8753 199.21 71.144V68.1936C199.21 66.4623 200.613 65.0588 202.344 65.0588H208.43V74.2788Z" fill="#111111"/>
<path d="M217.374 65.0586H208.154V74.2786H217.374V65.0586Z" fill="#111111"/>
<path d="M217.098 74.2788V65.0588H223.183C224.914 65.0588 226.318 66.4623 226.318 68.1936V74.2788H217.098Z" fill="#111111"/>
<path d="M243.928 67.6955V71.6509C243.928 73.1077 245.108 74.2786 246.565 74.2786H250.52C251.986 74.2786 253.157 73.0985 253.157 71.6417V67.6955C253.148 66.2295 251.968 65.0586 250.511 65.0586H246.565C245.108 65.0586 243.928 66.2388 243.928 67.6955Z" fill="#111111"/>
<path d="M110.052 83.2222H100.832V77.1369C100.832 75.4056 102.236 74.0021 103.967 74.0021H110.052V83.2222Z" fill="#111111"/>
<path d="M118.996 74.002H109.776V83.222H118.996V74.002Z" fill="#111111"/>
<path d="M118.72 83.2222V74.0021H124.805C126.536 74.0021 127.94 75.4056 127.94 77.1369V83.2222H118.72Z" fill="#111111"/>
<path d="M154.77 74.002V80.0872C154.77 81.8185 153.366 83.222 151.635 83.222H148.684C146.953 83.222 145.549 81.8185 145.549 80.0872V74.002H154.77Z" fill="#111111"/>
<path d="M172.657 74.002V80.0872C172.657 81.8185 171.253 83.222 169.522 83.222H166.572C164.84 83.222 163.437 81.8185 163.437 80.0872V74.002H172.657Z" fill="#111111"/>
<path d="M181.324 76.6389V80.5943C181.324 82.051 182.504 83.222 183.961 83.222H187.916C189.382 83.222 190.553 82.0418 190.553 80.5851V76.6389C190.544 75.1729 189.364 74.002 187.907 74.002H183.961C182.504 74.002 181.324 75.1821 181.324 76.6389Z" fill="#111111"/>
<path d="M226.317 74.002V83.222H220.232C218.5 83.222 217.097 81.8185 217.097 80.0872V74.002H226.317Z" fill="#111111"/>
<path d="M226.041 83.2222V74.0021H232.126C233.857 74.0021 235.261 75.4056 235.261 77.1369V83.2222H226.041Z" fill="#111111"/>
<path d="M110.053 82.9458H100.833V92.1658H110.053V82.9458Z" fill="#111111"/>
<path d="M127.94 82.9458H118.72V92.1658H127.94V82.9458Z" fill="#111111"/>
<path d="M136.606 85.5827V89.5381C136.606 90.9949 137.786 92.1658 139.243 92.1658H143.198C144.664 92.1658 145.835 90.9857 145.835 89.5289V85.5827C145.826 84.1167 144.646 82.9458 143.189 82.9458H139.243C137.786 82.9458 136.606 84.126 136.606 85.5827Z" fill="#111111"/>
<path d="M151.958 91.9812V92.1656H154.77V89.3535H154.585C154.585 90.8103 153.405 91.9812 151.958 91.9812Z" fill="#111111"/>
<path d="M154.493 92.165V86.0798C154.493 84.3485 155.897 82.945 157.628 82.945H160.578C162.31 82.945 163.713 84.3485 163.713 86.0798V92.165H154.493Z" fill="#111111"/>
<path d="M172.38 85.5827V89.5381C172.38 90.9949 173.56 92.1658 175.017 92.1658H178.972C180.438 92.1658 181.609 90.9857 181.609 89.5289V85.5827C181.6 84.1167 180.42 82.9458 178.963 82.9458H175.017C173.56 82.9458 172.38 84.126 172.38 85.5827Z" fill="#111111"/>
<path d="M190.267 85.5827V89.5381C190.267 90.9949 191.447 92.1658 192.904 92.1658H196.859C198.325 92.1658 199.496 90.9857 199.496 89.5289V85.5827C199.487 84.1167 198.307 82.9458 196.85 82.9458H192.904C191.447 82.9458 190.267 84.126 190.267 85.5827Z" fill="#111111"/>
<path d="M205.619 91.9812V92.1656H208.431V89.3535H208.246C208.246 90.8103 207.066 91.9812 205.619 91.9812Z" fill="#111111"/>
<path d="M208.154 92.165V86.0798C208.154 84.3485 209.558 82.945 211.289 82.945H214.24C215.971 82.945 217.374 84.3485 217.374 86.0798V92.165H208.154Z" fill="#111111"/>
<path d="M223.506 91.9812V92.1656H226.318V89.3535H226.134C226.134 90.8103 224.953 91.9812 223.506 91.9812Z" fill="#111111"/>
<path d="M235.261 82.9458H226.041V92.1658H235.261V82.9458Z" fill="#111111"/>
<path d="M243.928 92.165V86.0798C243.928 84.3485 245.331 82.945 247.063 82.945H250.013C251.744 82.945 253.148 84.3485 253.148 86.0798V92.165H243.928Z" fill="#111111"/>
<path d="M110.053 91.8892H100.833V101.109H110.053V91.8892Z" fill="#111111"/>
<path d="M118.996 91.8892H109.776V101.109H118.996V91.8892Z" fill="#111111"/>
<path d="M118.72 91.8892H127.94V97.9744C127.94 99.7057 126.536 101.109 124.805 101.109H118.72V91.8892Z" fill="#111111"/>
<path d="M143.014 100.925V101.109H145.826V98.2974H145.642C145.642 99.7541 144.462 100.925 143.014 100.925Z" fill="#111111"/>
<path d="M154.769 101.108H145.549V95.0232C145.549 93.2919 146.953 91.8884 148.684 91.8884H154.769V101.108Z" fill="#111111"/>
<path d="M163.713 91.8892H154.493V101.109H163.713V91.8892Z" fill="#111111"/>
<path d="M163.437 101.108V91.8884H169.522C171.253 91.8884 172.657 93.2919 172.657 95.0232V101.108H163.437Z" fill="#111111"/>
<path d="M181.324 94.5261V98.4815C181.324 99.9383 182.504 101.109 183.961 101.109H187.916C189.382 101.109 190.553 99.929 190.553 98.4723V94.5261C190.544 93.0601 189.364 91.8892 187.907 91.8892H183.961C182.504 91.8892 181.324 93.0693 181.324 94.5261Z" fill="#111111"/>
<path d="M196.675 100.925V101.109H199.487V98.2974H199.303C199.303 99.7541 198.123 100.925 196.675 100.925Z" fill="#111111"/>
<path d="M208.43 101.108H199.21V95.0232C199.21 93.2919 200.613 91.8884 202.344 91.8884H208.43V101.108Z" fill="#111111"/>
<path d="M217.374 91.8892H208.154V101.109H217.374V91.8892Z" fill="#111111"/>
<path d="M226.318 91.8892H217.098V101.109H226.318V91.8892Z" fill="#111111"/>
<path d="M235.261 91.8892H226.041V101.109H235.261V91.8892Z" fill="#111111"/>
<path d="M253.148 91.8892H243.928V101.109H253.148V91.8892Z" fill="#111111"/>
<path d="M56.3911 110.052H50.3059C48.5746 110.052 47.1711 108.649 47.1711 106.917V103.967C47.1711 102.236 48.5746 100.832 50.3059 100.832H56.3911V110.052Z" fill="#111111"/>
<path d="M65.3358 100.833H56.1157V110.053H65.3358V100.833Z" fill="#111111"/>
<path d="M65.0586 110.052V103.967C65.0586 102.236 66.4621 100.832 68.1934 100.832H71.1438C72.8751 100.832 74.2786 102.236 74.2786 103.967V110.052H65.0586Z" fill="#111111"/>
<path d="M82.9458 103.469V107.425C82.9458 108.882 84.126 110.053 85.5827 110.053H89.5381C91.0041 110.053 92.1751 108.872 92.1751 107.416V103.469C92.1658 102.003 90.9857 100.833 89.5289 100.833H85.5827C84.126 100.833 82.9458 102.013 82.9458 103.469Z" fill="#111111"/>
<path d="M110.052 100.833V106.918C110.052 108.649 108.649 110.053 106.917 110.053H103.967C102.236 110.053 100.832 108.649 100.832 106.918V100.833H110.052Z" fill="#111111"/>
<path d="M145.826 110.052H139.741C138.01 110.052 136.606 108.649 136.606 106.917V103.967C136.606 102.236 138.01 100.832 139.741 100.832H145.826V110.052Z" fill="#111111"/>
<path d="M145.55 100.833H154.77V106.918C154.77 108.649 153.367 110.053 151.636 110.053H145.55V100.833Z" fill="#111111"/>
<path d="M172.657 100.833H163.437V110.053H172.657V100.833Z" fill="#111111"/>
<path d="M199.487 110.052H193.402C191.67 110.052 190.267 108.649 190.267 106.917V103.967C190.267 102.236 191.67 100.832 193.402 100.832H199.487V110.052Z" fill="#111111"/>
<path d="M208.43 100.833H199.21V110.053H208.43V100.833Z" fill="#111111"/>
<path d="M235.261 100.833V106.918C235.261 108.649 233.857 110.053 232.126 110.053H229.176C227.444 110.053 226.041 108.649 226.041 106.918V100.833H235.261Z" fill="#111111"/>
<path d="M253.147 100.833V110.053H247.062C245.33 110.053 243.927 108.649 243.927 106.918V100.833H253.147Z" fill="#111111"/>
<path d="M262.091 100.833H252.871V110.053H262.091V100.833Z" fill="#111111"/>
<path d="M271.034 100.833H261.814V110.053H271.034V100.833Z" fill="#111111"/>
<path d="M270.758 110.052V103.967C270.758 102.236 272.162 100.832 273.893 100.832H276.844C278.575 100.832 279.978 102.236 279.978 103.967V110.052H270.758Z" fill="#111111"/>
<path d="M295.054 109.868V110.053H297.866V107.241H297.681C297.681 108.697 296.501 109.868 295.054 109.868Z" fill="#111111"/>
<path d="M306.808 110.052H297.588V103.967C297.588 102.236 298.992 100.832 300.723 100.832H306.808V110.052Z" fill="#111111"/>
<path d="M315.752 100.833H306.532V110.053H315.752V100.833Z" fill="#111111"/>
<path d="M315.475 110.052V100.832H321.56C323.292 100.832 324.695 102.236 324.695 103.967V110.052H315.475Z" fill="#111111"/>
<path d="M38.5049 118.995H29.2848V112.91C29.2848 111.179 30.6883 109.775 32.4197 109.775H38.5049V118.995Z" fill="#111111"/>
<path d="M38.2285 118.995V109.775H44.3137C46.0451 109.775 47.4486 111.179 47.4486 112.91V118.995H38.2285Z" fill="#111111"/>
<path d="M65.335 109.776V115.862C65.335 117.593 63.9315 118.996 62.2001 118.996H59.2497C57.5184 118.996 56.1149 117.593 56.1149 115.862V109.776H65.335Z" fill="#111111"/>
<path d="M74.002 112.413V116.369C74.002 117.825 75.1821 118.996 76.6389 118.996H80.5943C82.0603 118.996 83.2312 117.816 83.2312 116.359V112.413C83.222 110.947 82.0418 109.776 80.5851 109.776H76.6389C75.1821 109.776 74.002 110.957 74.002 112.413Z" fill="#111111"/>
<path d="M118.72 112.413V116.369C118.72 117.825 119.9 118.996 121.357 118.996H125.312C126.778 118.996 127.949 117.816 127.949 116.359V112.413C127.94 110.947 126.76 109.776 125.303 109.776H121.357C119.9 109.776 118.72 110.957 118.72 112.413Z" fill="#111111"/>
<path d="M163.712 118.995H154.492V112.91C154.492 111.179 155.896 109.775 157.627 109.775H163.712V118.995Z" fill="#111111"/>
<path d="M172.657 109.776H163.437V118.996H172.657V109.776Z" fill="#111111"/>
<path d="M181.6 109.776H172.38V118.996H181.6V109.776Z" fill="#111111"/>
<path d="M181.324 118.995V112.91C181.324 111.179 182.727 109.775 184.459 109.775H187.409C189.14 109.775 190.544 111.179 190.544 112.91V118.995H181.324Z" fill="#111111"/>
<path d="M208.43 109.776V115.862C208.43 117.593 207.026 118.996 205.295 118.996H202.344C200.613 118.996 199.21 117.593 199.21 115.862V109.776H208.43Z" fill="#111111"/>
<path d="M234.984 112.413V116.369C234.984 117.825 236.164 118.996 237.621 118.996H241.576C243.042 118.996 244.213 117.816 244.213 116.359V112.413C244.204 110.947 243.024 109.776 241.567 109.776H237.621C236.164 109.776 234.984 110.957 234.984 112.413Z" fill="#111111"/>
<path d="M262.091 109.776H252.871V118.996H262.091V109.776Z" fill="#111111"/>
<path d="M261.814 109.776H271.034V115.862C271.034 117.593 269.631 118.996 267.9 118.996H261.814V109.776Z" fill="#111111"/>
<path d="M297.864 118.995H288.644V112.91C288.644 111.179 290.048 109.775 291.779 109.775H297.864V118.995Z" fill="#111111"/>
<path d="M306.808 109.776H297.588V118.996H306.808V109.776Z" fill="#111111"/>
<path d="M324.694 109.776V115.862C324.694 117.593 323.291 118.996 321.56 118.996H318.609C316.878 118.996 315.474 117.593 315.474 115.862V109.776H324.694Z" fill="#111111"/>
<path d="M38.5052 118.72H29.2852V127.94H38.5052V118.72Z" fill="#111111"/>
<path d="M47.4486 118.72H38.2285V127.94H47.4486V118.72Z" fill="#111111"/>
<path d="M62.5229 127.755V127.939H65.3351V125.127H65.1507C65.1507 126.584 63.9705 127.755 62.5229 127.755Z" fill="#111111"/>
<path d="M65.0586 127.938V121.853C65.0586 120.122 66.4621 118.718 68.1934 118.718H71.1438C72.8751 118.718 74.2786 120.122 74.2786 121.853V127.938H65.0586Z" fill="#111111"/>
<path d="M92.165 127.938H86.0798C84.3485 127.938 82.945 126.535 82.945 124.804V121.853C82.945 120.122 84.3485 118.718 86.0798 118.718H92.165V127.938Z" fill="#111111"/>
<path d="M101.109 118.72H91.8892V127.94H101.109V118.72Z" fill="#111111"/>
<path d="M100.833 127.938V118.718H106.918C108.649 118.718 110.053 120.122 110.053 121.853V127.938H100.833Z" fill="#111111"/>
<path d="M163.712 118.72V124.805C163.712 126.536 162.309 127.94 160.578 127.94H157.627C155.896 127.94 154.492 126.536 154.492 124.805V118.72H163.712Z" fill="#111111"/>
<path d="M208.154 121.357V125.312C208.154 126.769 209.334 127.94 210.791 127.94H214.747C216.213 127.94 217.384 126.76 217.384 125.303V121.357C217.374 119.891 216.194 118.72 214.737 118.72H210.791C209.334 118.72 208.154 119.9 208.154 121.357Z" fill="#111111"/>
<path d="M226.041 121.357V125.312C226.041 126.769 227.221 127.94 228.677 127.94H232.633C234.099 127.94 235.27 126.76 235.27 125.303V121.357C235.261 119.891 234.08 118.72 232.624 118.72H228.677C227.221 118.72 226.041 119.9 226.041 121.357Z" fill="#111111"/>
<path d="M253.147 127.938H247.062C245.33 127.938 243.927 126.535 243.927 124.804V121.853C243.927 120.122 245.33 118.718 247.062 118.718H253.147V127.938Z" fill="#111111"/>
<path d="M262.091 118.72H252.871V127.94H262.091V118.72Z" fill="#111111"/>
<path d="M270.758 121.357V125.312C270.758 126.769 271.938 127.94 273.395 127.94H277.351C278.817 127.94 279.988 126.76 279.988 125.303V121.357C279.978 119.891 278.798 118.72 277.341 118.72H273.395C271.938 118.72 270.758 119.9 270.758 121.357Z" fill="#111111"/>
<path d="M297.865 118.72H288.645V127.94H297.865V118.72Z" fill="#111111"/>
<path d="M306.808 118.72H297.588V127.94H306.808V118.72Z" fill="#111111"/>
<path d="M38.5052 127.663H29.2852V136.883H38.5052V127.663Z" fill="#111111"/>
<path d="M38.2285 127.663H47.4486V133.748C47.4486 135.48 46.0451 136.883 44.3137 136.883H38.2285V127.663Z" fill="#111111"/>
<path d="M53.5796 136.699V136.883H56.3917V134.071H56.2073C56.2073 135.528 55.0271 136.699 53.5796 136.699Z" fill="#111111"/>
<path d="M65.335 136.882H56.1149V130.797C56.1149 129.066 57.5184 127.662 59.2497 127.662H65.335V136.882Z" fill="#111111"/>
<path d="M65.0586 127.663H74.2786V133.748C74.2786 135.48 72.8751 136.883 71.1438 136.883H65.0586V127.663Z" fill="#111111"/>
<path d="M110.053 127.663H100.833V136.883H110.053V127.663Z" fill="#111111"/>
<path d="M109.776 136.882V127.662H115.862C117.593 127.662 118.996 129.066 118.996 130.797V136.882H109.776Z" fill="#111111"/>
<path d="M145.826 136.882H139.741C138.01 136.882 136.606 135.479 136.606 133.748V130.797C136.606 129.066 138.01 127.662 139.741 127.662H145.826V136.882Z" fill="#111111"/>
<path d="M145.55 136.882V130.797C145.55 129.066 146.954 127.662 148.685 127.662H151.636C153.367 127.662 154.77 129.066 154.77 130.797V136.882H145.55Z" fill="#111111"/>
<path d="M172.656 136.882H166.571C164.84 136.882 163.436 135.479 163.436 133.748V130.797C163.436 129.066 164.84 127.662 166.571 127.662H172.656V136.882Z" fill="#111111"/>
<path d="M172.38 136.882V130.797C172.38 129.066 173.783 127.662 175.515 127.662H178.465C180.196 127.662 181.6 129.066 181.6 130.797V136.882H172.38Z" fill="#111111"/>
<path d="M199.487 136.882H193.402C191.67 136.882 190.267 135.479 190.267 133.748V130.797C190.267 129.066 191.67 127.662 193.402 127.662H199.487V136.882Z" fill="#111111"/>
<path d="M199.21 136.882V130.797C199.21 129.066 200.614 127.662 202.345 127.662H205.296C207.027 127.662 208.43 129.066 208.43 130.797V136.882H199.21Z" fill="#111111"/>
<path d="M262.091 127.663V133.748C262.091 135.48 260.687 136.883 258.956 136.883H256.006C254.274 136.883 252.871 135.48 252.871 133.748V127.663H262.091Z" fill="#111111"/>
<path d="M297.864 127.663V136.883H291.779C290.048 136.883 288.644 135.48 288.644 133.748V127.663H297.864Z" fill="#111111"/>
<path d="M297.588 127.663H306.808V133.748C306.808 135.48 305.404 136.883 303.673 136.883H297.588V127.663Z" fill="#111111"/>
<path d="M38.5052 136.606H29.2852V145.826H38.5052V136.606Z" fill="#111111"/>
<path d="M56.3911 145.826H50.3059C48.5746 145.826 47.1711 144.423 47.1711 142.691V139.741C47.1711 138.01 48.5746 136.606 50.3059 136.606H56.3911V145.826Z" fill="#111111"/>
<path d="M65.3358 136.606H56.1157V145.826H65.3358V136.606Z" fill="#111111"/>
<path d="M82.9458 139.243V143.198C82.9458 144.655 84.126 145.826 85.5827 145.826H89.5381C91.0041 145.826 92.1751 144.646 92.1751 143.189V139.243C92.1658 137.777 90.9857 136.606 89.5289 136.606H85.5827C84.126 136.606 82.9458 137.786 82.9458 139.243Z" fill="#111111"/>
<path d="M110.053 136.606H100.833V145.826H110.053V136.606Z" fill="#111111"/>
<path d="M109.776 136.606H118.996V142.691C118.996 144.422 117.593 145.826 115.862 145.826H109.776V136.606Z" fill="#111111"/>
<path d="M127.663 139.243V143.198C127.663 144.655 128.843 145.826 130.3 145.826H134.255C135.721 145.826 136.892 144.646 136.892 143.189V139.243C136.883 137.777 135.703 136.606 134.246 136.606H130.3C128.843 136.606 127.663 137.786 127.663 139.243Z" fill="#111111"/>
<path d="M226.317 145.826H220.232C218.5 145.826 217.097 144.423 217.097 142.691V139.741C217.097 138.01 218.5 136.606 220.232 136.606H226.317V145.826Z" fill="#111111"/>
<path d="M226.041 145.826V139.741C226.041 138.01 227.444 136.606 229.175 136.606H232.126C233.857 136.606 235.261 138.01 235.261 139.741V145.826H226.041Z" fill="#111111"/>
<path d="M243.928 139.243V143.198C243.928 144.655 245.108 145.826 246.565 145.826H250.52C251.986 145.826 253.157 144.646 253.157 143.189V139.243C253.148 137.777 251.968 136.606 250.511 136.606H246.565C245.108 136.606 243.928 137.786 243.928 139.243Z" fill="#111111"/>
<path d="M279.977 145.826H273.892C272.161 145.826 270.757 144.423 270.757 142.691V139.741C270.757 138.01 272.161 136.606 273.892 136.606H279.977V145.826Z" fill="#111111"/>
<path d="M279.702 145.826V139.741C279.702 138.01 281.105 136.606 282.836 136.606H285.787C287.518 136.606 288.922 138.01 288.922 139.741V145.826H279.702Z" fill="#111111"/>
<path d="M306.532 139.243V143.198C306.532 144.655 307.712 145.826 309.169 145.826H313.125C314.591 145.826 315.761 144.646 315.761 143.189V139.243C315.752 137.777 314.572 136.606 313.115 136.606H309.169C307.712 136.606 306.532 137.786 306.532 139.243Z" fill="#111111"/>
<path d="M38.5049 145.55V151.636C38.5049 153.367 37.1014 154.77 35.3701 154.77H32.4197C30.6883 154.77 29.2848 153.367 29.2848 151.636V145.55H38.5049Z" fill="#111111"/>
<path d="M65.3358 145.55H56.1157V154.77H65.3358V145.55Z" fill="#111111"/>
<path d="M74.002 154.77V148.684C74.002 146.953 75.4055 145.549 77.1368 145.549H80.0872C81.8185 145.549 83.222 146.953 83.222 148.684V154.77H74.002Z" fill="#111111"/>
<path d="M110.052 145.55V151.636C110.052 153.367 108.649 154.77 106.917 154.77H103.967C102.236 154.77 100.832 153.367 100.832 151.636V145.55H110.052Z" fill="#111111"/>
<path d="M118.72 148.187V152.143C118.72 153.599 119.9 154.77 121.357 154.77H125.312C126.778 154.77 127.949 153.59 127.949 152.133V148.187C127.94 146.721 126.76 145.55 125.303 145.55H121.357C119.9 145.55 118.72 146.73 118.72 148.187Z" fill="#111111"/>
<path d="M234.984 148.187V152.143C234.984 153.599 236.164 154.77 237.621 154.77H241.576C243.042 154.77 244.213 153.59 244.213 152.133V148.187C244.204 146.721 243.024 145.55 241.567 145.55H237.621C236.164 145.55 234.984 146.73 234.984 148.187Z" fill="#111111"/>
<path d="M261.814 148.187V152.143C261.814 153.599 262.995 154.77 264.451 154.77H268.407C269.873 154.77 271.044 153.59 271.044 152.133V148.187C271.034 146.721 269.854 145.55 268.398 145.55H264.451C262.995 145.55 261.814 146.73 261.814 148.187Z" fill="#111111"/>
<path d="M297.864 154.769H288.644V148.684C288.644 146.953 290.048 145.549 291.779 145.549H297.864V154.769Z" fill="#111111"/>
<path d="M297.588 154.77V148.684C297.588 146.953 298.991 145.549 300.723 145.549H303.673C305.404 145.549 306.808 146.953 306.808 148.684V154.77H297.588Z" fill="#111111"/>
<path d="M315.475 148.187V152.143C315.475 153.599 316.655 154.77 318.112 154.77H322.067C323.533 154.77 324.704 153.59 324.704 152.133V148.187C324.695 146.721 323.515 145.55 322.058 145.55H318.112C316.655 145.55 315.475 146.73 315.475 148.187Z" fill="#111111"/>
<path d="M38.2285 163.712V157.627C38.2285 155.896 39.632 154.492 41.3633 154.492H44.3137C46.0451 154.492 47.4486 155.896 47.4486 157.627V163.712H38.2285Z" fill="#111111"/>
<path d="M65.3358 154.493H56.1157V163.713H65.3358V154.493Z" fill="#111111"/>
<path d="M83.222 154.493H74.002V163.713H83.222V154.493Z" fill="#111111"/>
<path d="M92.1658 154.493H82.9458V163.713H92.1658V154.493Z" fill="#111111"/>
<path d="M91.8892 163.712V157.627C91.8892 155.896 93.2927 154.492 95.024 154.492H97.9744C99.7057 154.492 101.109 155.896 101.109 157.627V163.712H91.8892Z" fill="#111111"/>
<path d="M109.776 157.13V161.085C109.776 162.542 110.957 163.713 112.413 163.713H116.369C117.835 163.713 119.006 162.533 119.006 161.076V157.13C118.996 155.664 117.816 154.493 116.359 154.493H112.413C110.957 154.493 109.776 155.673 109.776 157.13Z" fill="#111111"/>
<path d="M127.663 157.13V161.085C127.663 162.542 128.843 163.713 130.3 163.713H134.255C135.721 163.713 136.892 162.533 136.892 161.076V157.13C136.883 155.664 135.703 154.493 134.246 154.493H130.3C128.843 154.493 127.663 155.673 127.663 157.13Z" fill="#111111"/>
<path d="M223.506 163.529V163.713H226.318V160.901H226.134C226.134 162.358 224.953 163.529 223.506 163.529Z" fill="#111111"/>
<path d="M226.041 163.712V157.627C226.041 155.896 227.444 154.492 229.175 154.492H232.126C233.857 154.492 235.261 155.896 235.261 157.627V163.712H226.041Z" fill="#111111"/>
<path d="M252.871 157.13V161.085C252.871 162.542 254.051 163.713 255.508 163.713H259.463C260.929 163.713 262.1 162.533 262.1 161.076V157.13C262.091 155.664 260.911 154.493 259.454 154.493H255.508C254.051 154.493 252.871 155.673 252.871 157.13Z" fill="#111111"/>
<path d="M297.865 154.493H288.645V163.713H297.865V154.493Z" fill="#111111"/>
<path d="M306.532 157.13V161.085C306.532 162.542 307.712 163.713 309.169 163.713H313.125C314.591 163.713 315.761 162.533 315.761 161.076V157.13C315.752 155.664 314.572 154.493 313.115 154.493H309.169C307.712 154.493 306.532 155.673 306.532 157.13Z" fill="#111111"/>
<path d="M47.4478 163.437V169.522C47.4478 171.253 46.0442 172.657 44.3129 172.657H41.3625C39.6312 172.657 38.2277 171.253 38.2277 169.522V163.437H47.4478Z" fill="#111111"/>
<path d="M65.3358 163.437H56.1157V172.657H65.3358V163.437Z" fill="#111111"/>
<path d="M83.2222 163.437V169.522C83.2222 171.253 81.8187 172.657 80.0874 172.657H77.1369C75.4056 172.657 74.0021 171.253 74.0021 169.522V163.437H83.2222Z" fill="#111111"/>
<path d="M118.72 172.657V166.572C118.72 164.84 120.123 163.437 121.855 163.437H124.805C126.536 163.437 127.94 164.84 127.94 166.572V172.657H118.72Z" fill="#111111"/>
<path d="M226.316 172.656H220.231C218.5 172.656 217.096 171.253 217.096 169.521V166.571C217.096 164.84 218.5 163.436 220.231 163.436H226.316V172.656Z" fill="#111111"/>
<path d="M226.041 163.437H235.261V169.522C235.261 171.253 233.857 172.657 232.126 172.657H226.041V163.437Z" fill="#111111"/>
<path d="M271.034 172.656H264.949C263.218 172.656 261.814 171.253 261.814 169.521V166.571C261.814 164.84 263.218 163.436 264.949 163.436H271.034V172.656Z" fill="#111111"/>
<path d="M270.758 172.657V166.572C270.758 164.84 272.162 163.437 273.893 163.437H276.844C278.575 163.437 279.978 164.84 279.978 166.572V172.657H270.758Z" fill="#111111"/>
<path d="M286.109 172.472V172.657H288.921V169.845H288.737C288.737 171.301 287.556 172.472 286.109 172.472Z" fill="#111111"/>
<path d="M297.865 163.437H288.645V172.657H297.865V163.437Z" fill="#111111"/>
<path d="M297.588 172.657V166.572C297.588 164.84 298.991 163.437 300.723 163.437H303.673C305.404 163.437 306.808 164.84 306.808 166.572V172.657H297.588Z" fill="#111111"/>
<path d="M312.939 172.472V172.657H315.752V169.845H315.567C315.567 171.301 314.387 172.472 312.939 172.472Z" fill="#111111"/>
<path d="M315.475 172.657V166.572C315.475 164.84 316.879 163.437 318.61 163.437H321.56C323.292 163.437 324.695 164.84 324.695 166.572V172.657H315.475Z" fill="#111111"/>
<path d="M29.2852 181.6V175.514C29.2852 173.783 30.6887 172.38 32.42 172.38H35.3704C37.1017 172.38 38.5052 173.783 38.5052 175.514V181.6H29.2852Z" fill="#111111"/>
<path d="M53.5796 181.416V181.6H56.3917V178.788H56.2073C56.2073 180.245 55.0271 181.416 53.5796 181.416Z" fill="#111111"/>
<path d="M65.3358 172.38H56.1157V181.6H65.3358V172.38Z" fill="#111111"/>
<path d="M92.165 181.6H86.0798C84.3485 181.6 82.945 180.196 82.945 178.465V175.514C82.945 173.783 84.3485 172.38 86.0798 172.38H92.165V181.6Z" fill="#111111"/>
<path d="M91.8892 181.6V175.514C91.8892 173.783 93.2927 172.38 95.024 172.38H97.9744C99.7057 172.38 101.109 173.783 101.109 175.514V181.6H91.8892Z" fill="#111111"/>
<path d="M116.184 181.416V181.6H118.996V178.788H118.812C118.812 180.245 117.632 181.416 116.184 181.416Z" fill="#111111"/>
<path d="M127.94 172.38H118.72V181.6H127.94V172.38Z" fill="#111111"/>
<path d="M127.663 181.6V172.38H133.748C135.48 172.38 136.883 173.783 136.883 175.514V181.6H127.663Z" fill="#111111"/>
<path d="M234.984 181.6V175.514C234.984 173.783 236.387 172.38 238.119 172.38H241.069C242.8 172.38 244.204 173.783 244.204 175.514V181.6H234.984Z" fill="#111111"/>
<path d="M250.335 181.416V181.6H253.148V178.788H252.963C252.963 180.245 251.783 181.416 250.335 181.416Z" fill="#111111"/>
<path d="M252.871 181.6V175.514C252.871 173.783 254.275 172.38 256.006 172.38H258.956C260.688 172.38 262.091 173.783 262.091 175.514V181.6H252.871Z" fill="#111111"/>
<path d="M288.921 181.6H282.836C281.104 181.6 279.701 180.196 279.701 178.465V175.514C279.701 173.783 281.104 172.38 282.836 172.38H288.921V181.6Z" fill="#111111"/>
<path d="M288.645 172.38H297.865V178.465C297.865 180.196 296.462 181.6 294.73 181.6H288.645V172.38Z" fill="#111111"/>
<path d="M315.751 181.6H309.666C307.935 181.6 306.531 180.196 306.531 178.465V175.514C306.531 173.783 307.935 172.38 309.666 172.38H315.751V181.6Z" fill="#111111"/>
<path d="M324.695 172.38H315.475V181.6H324.695V172.38Z" fill="#111111"/>
<path d="M38.5049 181.324V187.409C38.5049 189.14 37.1014 190.544 35.3701 190.544H32.4197C30.6883 190.544 29.2848 189.14 29.2848 187.409V181.324H38.5049Z" fill="#111111"/>
<path d="M56.3911 190.542H50.3059C48.5746 190.542 47.1711 189.139 47.1711 187.408V184.457C47.1711 182.726 48.5746 181.322 50.3059 181.322H56.3911V190.542Z" fill="#111111"/>
<path d="M65.3358 181.324H56.1157V190.544H65.3358V181.324Z" fill="#111111"/>
<path d="M65.0586 190.542V184.457C65.0586 182.726 66.4621 181.322 68.1934 181.322H71.1438C72.8751 181.322 74.2786 182.726 74.2786 184.457V190.542H65.0586Z" fill="#111111"/>
<path d="M107.241 190.359V190.544H110.053V187.731H109.868C109.868 189.188 108.688 190.359 107.241 190.359Z" fill="#111111"/>
<path d="M118.995 190.542H109.775V184.457C109.775 182.726 111.179 181.322 112.91 181.322H118.995V190.542Z" fill="#111111"/>
<path d="M127.94 181.324H118.72V190.544H127.94V181.324Z" fill="#111111"/>
<path d="M136.883 181.324H127.663V190.544H136.883V181.324Z" fill="#111111"/>
<path d="M217.098 190.542V184.457C217.098 182.726 218.501 181.322 220.232 181.322H223.183C224.914 181.322 226.318 182.726 226.318 184.457V190.542H217.098Z" fill="#111111"/>
<path d="M244.204 181.324V190.544H238.118C236.387 190.544 234.984 189.14 234.984 187.409V181.324H244.204Z" fill="#111111"/>
<path d="M253.148 181.324H243.928V190.544H253.148V181.324Z" fill="#111111"/>
<path d="M262.091 181.324H252.871V190.544H262.091V181.324Z" fill="#111111"/>
<path d="M324.694 181.324V187.409C324.694 189.14 323.291 190.544 321.56 190.544H318.609C316.878 190.544 315.474 189.14 315.474 187.409V181.324H324.694Z" fill="#111111"/>
<path d="M65.335 190.267V196.352C65.335 198.084 63.9315 199.487 62.2001 199.487H59.2497C57.5184 199.487 56.1149 198.084 56.1149 196.352V190.267H65.335Z" fill="#111111"/>
<path d="M92.165 199.487H86.0798C84.3485 199.487 82.945 198.083 82.945 196.352V193.402C82.945 191.67 84.3485 190.267 86.0798 190.267H92.165V199.487Z" fill="#111111"/>
<path d="M101.109 190.267H91.8892V199.487H101.109V190.267Z" fill="#111111"/>
<path d="M110.053 190.267H100.833V199.487H110.053V190.267Z" fill="#111111"/>
<path d="M118.996 190.267H109.776V199.487H118.996V190.267Z" fill="#111111"/>
<path d="M127.94 190.267H118.72V199.487H127.94V190.267Z" fill="#111111"/>
<path d="M136.883 190.267H127.663V199.487H136.883V190.267Z" fill="#111111"/>
<path d="M226.318 190.267H217.098V199.487H226.318V190.267Z" fill="#111111"/>
<path d="M226.041 199.487V193.402C226.041 191.67 227.444 190.267 229.175 190.267H232.126C233.857 190.267 235.261 191.67 235.261 193.402V199.487H226.041Z" fill="#111111"/>
<path d="M262.091 190.267H252.871V199.487H262.091V190.267Z" fill="#111111"/>
<path d="M261.814 199.487V193.402C261.814 191.67 263.218 190.267 264.949 190.267H267.9C269.631 190.267 271.034 191.67 271.034 193.402V199.487H261.814Z" fill="#111111"/>
<path d="M295.054 199.303V199.487H297.866V196.675H297.681C297.681 198.132 296.501 199.303 295.054 199.303Z" fill="#111111"/>
<path d="M306.808 199.487H297.588V193.402C297.588 191.67 298.992 190.267 300.723 190.267H306.808V199.487Z" fill="#111111"/>
<path d="M306.532 199.486V190.266H312.617C314.349 190.266 315.752 191.67 315.752 193.401V199.486H306.532Z" fill="#111111"/>
<path d="M29.2852 208.43V202.344C29.2852 200.613 30.6887 199.21 32.42 199.21H35.3704C37.1017 199.21 38.5052 200.613 38.5052 202.344V208.43H29.2852Z" fill="#111111"/>
<path d="M47.1724 208.43V202.344C47.1724 200.613 48.5759 199.21 50.3072 199.21H53.2576C54.9889 199.21 56.3924 200.613 56.3924 202.344V208.43H47.1724Z" fill="#111111"/>
<path d="M101.108 199.21V208.43H95.0232C93.2919 208.43 91.8884 207.027 91.8884 205.296V199.21H101.108Z" fill="#111111"/>
<path d="M110.053 199.21H100.833V208.43H110.053V199.21Z" fill="#111111"/>
<path d="M118.996 199.21H109.776V208.43H118.996V199.21Z" fill="#111111"/>
<path d="M136.883 199.21H127.663V208.43H136.883V199.21Z" fill="#111111"/>
<path d="M226.317 199.21V205.296C226.317 207.027 224.913 208.43 223.182 208.43H220.232C218.5 208.43 217.097 207.027 217.097 205.296V199.21H226.317Z" fill="#111111"/>
<path d="M244.204 208.43H238.118C236.387 208.43 234.984 207.026 234.984 205.295V202.344C234.984 200.613 236.387 199.21 238.118 199.21H244.204V208.43Z" fill="#111111"/>
<path d="M253.148 199.21H243.928V208.43H253.148V199.21Z" fill="#111111"/>
<path d="M252.871 199.21H262.091V205.296C262.091 207.027 260.688 208.43 258.956 208.43H252.871V199.21Z" fill="#111111"/>
<path d="M286.109 208.246V208.431H288.921V205.619H288.737C288.737 207.075 287.556 208.246 286.109 208.246Z" fill="#111111"/>
<path d="M297.864 208.43H288.644V202.344C288.644 200.613 290.048 199.21 291.779 199.21H297.864V208.43Z" fill="#111111"/>
<path d="M306.808 199.21H297.588V208.43H306.808V199.21Z" fill="#111111"/>
<path d="M315.752 199.21H306.532V208.43H315.752V199.21Z" fill="#111111"/>
<path d="M38.5052 208.154H29.2852V217.374H38.5052V208.154Z" fill="#111111"/>
<path d="M56.3921 208.154V217.374H50.3069C48.5756 217.374 47.172 215.971 47.172 214.24V208.154H56.3921Z" fill="#111111"/>
<path d="M65.3358 208.154H56.1157V217.374H65.3358V208.154Z" fill="#111111"/>
<path d="M65.0586 217.374V208.153H71.1438C72.8751 208.153 74.2786 209.557 74.2786 211.288V217.374H65.0586Z" fill="#111111"/>
<path d="M82.9458 210.791V214.747C82.9458 216.203 84.126 217.374 85.5827 217.374H89.5381C91.0041 217.374 92.1751 216.194 92.1751 214.737V210.791C92.1658 209.325 90.9857 208.154 89.5289 208.154H85.5827C84.126 208.154 82.9458 209.334 82.9458 210.791Z" fill="#111111"/>
<path d="M110.053 208.154H100.833V217.374H110.053V208.154Z" fill="#111111"/>
<path d="M118.996 208.154H109.776V217.374H118.996V208.154Z" fill="#111111"/>
<path d="M127.94 208.154H118.72V217.374H127.94V208.154Z" fill="#111111"/>
<path d="M127.663 208.154H136.883V214.24C136.883 215.971 135.48 217.374 133.748 217.374H127.663V208.154Z" fill="#111111"/>
<path d="M226.041 217.374V211.288C226.041 209.557 227.444 208.153 229.175 208.153H232.126C233.857 208.153 235.261 209.557 235.261 211.288V217.374H226.041Z" fill="#111111"/>
<path d="M253.147 208.154V214.24C253.147 215.971 251.743 217.374 250.012 217.374H247.062C245.33 217.374 243.927 215.971 243.927 214.24V208.154H253.147Z" fill="#111111"/>
<path d="M279.977 217.374H273.892C272.161 217.374 270.757 215.97 270.757 214.239V211.288C270.757 209.557 272.161 208.153 273.892 208.153H279.977V217.374Z" fill="#111111"/>
<path d="M288.922 208.154H279.702V217.374H288.922V208.154Z" fill="#111111"/>
<path d="M297.865 208.154H288.645V217.374H297.865V208.154Z" fill="#111111"/>
<path d="M315.751 208.154V214.24C315.751 215.971 314.348 217.374 312.617 217.374H309.666C307.935 217.374 306.531 215.971 306.531 214.24V208.154H315.751Z" fill="#111111"/>
<path d="M38.5052 217.098H29.2852V226.318H38.5052V217.098Z" fill="#111111"/>
<path d="M38.2285 226.317V220.232C38.2285 218.5 39.632 217.097 41.3633 217.097H44.3137C46.0451 217.097 47.4486 218.5 47.4486 220.232V226.317H38.2285Z" fill="#111111"/>
<path d="M65.3358 217.098H56.1157V226.318H65.3358V217.098Z" fill="#111111"/>
<path d="M74.2786 217.098H65.0586V226.318H74.2786V217.098Z" fill="#111111"/>
<path d="M98.2974 226.134V226.318H101.109V223.506H100.925C100.925 224.963 99.7449 226.134 98.2974 226.134Z" fill="#111111"/>
<path d="M110.053 217.098H100.833V226.318H110.053V217.098Z" fill="#111111"/>
<path d="M118.996 217.098H109.776V226.318H118.996V217.098Z" fill="#111111"/>
<path d="M145.826 226.317H136.606V220.232C136.606 218.5 138.01 217.097 139.741 217.097H145.826V226.317Z" fill="#111111"/>
<path d="M145.55 226.317V220.232C145.55 218.5 146.954 217.097 148.685 217.097H151.636C153.367 217.097 154.77 218.5 154.77 220.232V226.317H145.55Z" fill="#111111"/>
<path d="M196.675 226.134V226.318H199.487V223.506H199.303C199.303 224.963 198.123 226.134 196.675 226.134Z" fill="#111111"/>
<path d="M208.43 226.316H199.21V220.231C199.21 218.5 200.613 217.096 202.344 217.096H208.43V226.316Z" fill="#111111"/>
<path d="M208.154 226.317V220.232C208.154 218.5 209.558 217.097 211.289 217.097H214.24C215.971 217.097 217.374 218.5 217.374 220.232V226.317H208.154Z" fill="#111111"/>
<path d="M223.506 226.134V226.318H226.318V223.506H226.134C226.134 224.963 224.953 226.134 223.506 226.134Z" fill="#111111"/>
<path d="M235.261 217.098H226.041V226.318H235.261V217.098Z" fill="#111111"/>
<path d="M297.864 217.098V223.183C297.864 224.914 296.461 226.318 294.729 226.318H291.779C290.048 226.318 288.644 224.914 288.644 223.183V217.098H297.864Z" fill="#111111"/>
<path d="M315.475 219.735V223.69C315.475 225.147 316.655 226.318 318.112 226.318H322.067C323.533 226.318 324.704 225.138 324.704 223.681V219.735C324.695 218.269 323.515 217.098 322.058 217.098H318.112C316.655 217.098 315.475 218.278 315.475 219.735Z" fill="#111111"/>
<path d="M38.5052 226.041H29.2852V235.261H38.5052V226.041Z" fill="#111111"/>
<path d="M53.5796 235.076V235.261H56.3917V232.449H56.2073C56.2073 233.905 55.0271 235.076 53.5796 235.076Z" fill="#111111"/>
<path d="M65.3358 226.041H56.1157V235.261H65.3358V226.041Z" fill="#111111"/>
<path d="M74.2786 226.041H65.0586V235.261H74.2786V226.041Z" fill="#111111"/>
<path d="M83.222 226.041H74.002V235.261H83.222V226.041Z" fill="#111111"/>
<path d="M92.1658 226.041H82.9458V235.261H92.1658V226.041Z" fill="#111111"/>
<path d="M101.109 226.041H91.8892V235.261H101.109V226.041Z" fill="#111111"/>
<path d="M110.053 226.041H100.833V235.261H110.053V226.041Z" fill="#111111"/>
<path d="M118.996 226.041H109.776V235.261H118.996V226.041Z" fill="#111111"/>
<path d="M134.071 235.076V235.261H136.883V232.449H136.699C136.699 233.905 135.519 235.076 134.071 235.076Z" fill="#111111"/>
<path d="M145.826 226.041H136.606V235.261H145.826V226.041Z" fill="#111111"/>
<path d="M172.656 235.26H166.571C164.84 235.26 163.436 233.857 163.436 232.125V229.175C163.436 227.444 164.84 226.04 166.571 226.04H172.656V235.26Z" fill="#111111"/>
<path d="M172.38 235.261V229.176C172.38 227.444 173.783 226.041 175.515 226.041H178.465C180.196 226.041 181.6 227.444 181.6 229.176V235.261H172.38Z" fill="#111111"/>
<path d="M187.731 235.076V235.261H190.544V232.449H190.359C190.359 233.905 189.179 235.076 187.731 235.076Z" fill="#111111"/>
<path d="M199.487 235.261H190.267V229.176C190.267 227.444 191.67 226.041 193.402 226.041H199.487V235.261Z" fill="#111111"/>
<path d="M208.43 226.041H199.21V235.261H208.43V226.041Z" fill="#111111"/>
<path d="M226.316 235.26H217.096V229.175C217.096 227.444 218.5 226.04 220.231 226.04H226.316V235.26Z" fill="#111111"/>
<path d="M235.261 226.041H226.041V235.261H235.261V226.041Z" fill="#111111"/>
<path d="M244.204 226.041H234.984V235.261H244.204V226.041Z" fill="#111111"/>
<path d="M243.928 235.261V229.176C243.928 227.444 245.331 226.041 247.063 226.041H250.013C251.744 226.041 253.148 227.444 253.148 229.176V235.261H243.928Z" fill="#111111"/>
<path d="M306.532 228.677V232.633C306.532 234.09 307.712 235.261 309.169 235.261H313.125C314.591 235.261 315.761 234.08 315.761 232.624V228.677C315.752 227.211 314.572 226.041 313.115 226.041H309.169C307.712 226.041 306.532 227.221 306.532 228.677Z" fill="#111111"/>
<path d="M38.5052 234.984H29.2852V244.204H38.5052V234.984Z" fill="#111111"/>
<path d="M56.3911 244.204H50.3059C48.5746 244.204 47.1711 242.8 47.1711 241.069V238.118C47.1711 236.387 48.5746 234.984 50.3059 234.984H56.3911V244.204Z" fill="#111111"/>
<path d="M56.1157 234.984H65.3358V241.069C65.3358 242.8 63.9323 244.204 62.201 244.204H56.1157V234.984Z" fill="#111111"/>
<path d="M118.995 234.984V241.069C118.995 242.8 117.592 244.204 115.86 244.204H112.91C111.179 244.204 109.775 242.8 109.775 241.069V234.984H118.995Z" fill="#111111"/>
<path d="M136.882 244.204H130.797C129.066 244.204 127.662 242.8 127.662 241.069V238.118C127.662 236.387 129.066 234.984 130.797 234.984H136.882V244.204Z" fill="#111111"/>
<path d="M145.826 234.984H136.606V244.204H145.826V234.984Z" fill="#111111"/>
<path d="M145.55 244.204V238.118C145.55 236.387 146.954 234.984 148.685 234.984H151.636C153.367 234.984 154.77 236.387 154.77 238.118V244.204H145.55Z" fill="#111111"/>
<path d="M190.542 244.204H181.322V238.118C181.322 236.387 182.726 234.984 184.457 234.984H190.542V244.204Z" fill="#111111"/>
<path d="M199.487 234.984H190.267V244.204H199.487V234.984Z" fill="#111111"/>
<path d="M208.43 234.984H199.21V244.204H208.43V234.984Z" fill="#111111"/>
<path d="M226.317 234.984V241.069C226.317 242.8 224.913 244.204 223.182 244.204H220.232C218.5 244.204 217.097 242.8 217.097 241.069V234.984H226.317Z" fill="#111111"/>
<path d="M244.204 234.984H234.984V244.204H244.204V234.984Z" fill="#111111"/>
<path d="M277.166 244.02V244.204H279.978V241.392H279.794C279.794 242.849 278.614 244.02 277.166 244.02Z" fill="#111111"/>
<path d="M288.92 244.204H279.7V238.118C279.7 236.387 281.104 234.984 282.835 234.984H288.92V244.204Z" fill="#111111"/>
<path d="M297.865 234.984H288.645V244.204H297.865V234.984Z" fill="#111111"/>
<path d="M297.588 244.204V238.118C297.588 236.387 298.991 234.984 300.723 234.984H303.673C305.404 234.984 306.808 236.387 306.808 238.118V244.204H297.588Z" fill="#111111"/>
<path d="M315.475 237.621V241.576C315.475 243.033 316.655 244.204 318.112 244.204H322.067C323.533 244.204 324.704 243.024 324.704 241.567V237.621C324.695 236.155 323.515 234.984 322.058 234.984H318.112C316.655 234.984 315.475 236.164 315.475 237.621Z" fill="#111111"/>
<path d="M38.5049 243.928V250.013C38.5049 251.744 37.1014 253.148 35.3701 253.148H32.4197C30.6883 253.148 29.2848 251.744 29.2848 250.013V243.928H38.5049Z" fill="#111111"/>
<path d="M83.2222 253.147H77.1369C75.4056 253.147 74.0021 251.743 74.0021 250.012V247.062C74.0021 245.33 75.4056 243.927 77.1369 243.927H83.2222V253.147Z" fill="#111111"/>
<path d="M82.9458 253.147V247.062C82.9458 245.33 84.3493 243.927 86.0806 243.927H89.031C90.7623 243.927 92.1658 245.33 92.1658 247.062V253.147H82.9458Z" fill="#111111"/>
<path d="M100.833 253.147V247.062C100.833 245.33 102.236 243.927 103.967 243.927H106.918C108.649 243.927 110.053 245.33 110.053 247.062V253.147H100.833Z" fill="#111111"/>
<path d="M145.826 243.928V250.013C145.826 251.744 144.423 253.148 142.691 253.148H139.741C138.01 253.148 136.606 251.744 136.606 250.013V243.928H145.826Z" fill="#111111"/>
<path d="M163.712 253.147H154.492V247.062C154.492 245.33 155.896 243.927 157.627 243.927H163.712V253.147Z" fill="#111111"/>
<path d="M163.437 253.147V247.062C163.437 245.33 164.84 243.927 166.571 243.927H169.522C171.253 243.927 172.657 245.33 172.657 247.062V253.147H163.437Z" fill="#111111"/>
<path d="M190.542 243.928V253.148H184.457C182.726 253.148 181.322 251.744 181.322 250.013V243.928H190.542Z" fill="#111111"/>
<path d="M199.487 243.928H190.267V253.148H199.487V243.928Z" fill="#111111"/>
<path d="M208.43 243.928H199.21V253.148H208.43V243.928Z" fill="#111111"/>
<path d="M208.154 253.147V243.927H214.24C215.971 243.927 217.374 245.33 217.374 247.062V253.147H208.154Z" fill="#111111"/>
<path d="M235.261 253.147H229.176C227.444 253.147 226.041 251.743 226.041 250.012V247.062C226.041 245.33 227.444 243.927 229.176 243.927H235.261V253.147Z" fill="#111111"/>
<path d="M244.204 243.928H234.984V253.148H244.204V243.928Z" fill="#111111"/>
<path d="M253.148 243.928H243.928V253.148H253.148V243.928Z" fill="#111111"/>
<path d="M262.091 243.928H252.871V253.148H262.091V243.928Z" fill="#111111"/>
<path d="M271.034 243.928H261.814V253.148H271.034V243.928Z" fill="#111111"/>
<path d="M279.978 243.928H270.758V253.148H279.978V243.928Z" fill="#111111"/>
<path d="M288.922 243.928H279.702V253.148H288.922V243.928Z" fill="#111111"/>
<path d="M303.996 252.963V253.148H306.808V250.335H306.624C306.624 251.792 305.444 252.963 303.996 252.963Z" fill="#111111"/>
<path d="M306.532 253.147V247.062C306.532 245.33 307.936 243.927 309.667 243.927H312.617C314.349 243.927 315.752 245.33 315.752 247.062V253.147H306.532Z" fill="#111111"/>
<path d="M110.052 252.871V258.956C110.052 260.688 108.649 262.091 106.917 262.091H103.967C102.236 262.091 100.832 260.688 100.832 258.956V252.871H110.052Z" fill="#111111"/>
<path d="M118.72 255.508V259.463C118.72 260.92 119.9 262.091 121.357 262.091H125.312C126.778 262.091 127.949 260.911 127.949 259.454V255.508C127.94 254.042 126.76 252.871 125.303 252.871H121.357C119.9 252.871 118.72 254.051 118.72 255.508Z" fill="#111111"/>
<path d="M151.958 261.907V262.091H154.77V259.279H154.585C154.585 260.736 153.405 261.907 151.958 261.907Z" fill="#111111"/>
<path d="M163.713 252.871H154.493V262.091H163.713V252.871Z" fill="#111111"/>
<path d="M208.43 252.871V262.091H202.344C200.613 262.091 199.21 260.688 199.21 258.956V252.871H208.43Z" fill="#111111"/>
<path d="M217.374 252.871H208.154V262.091H217.374V252.871Z" fill="#111111"/>
<path d="M217.098 262.091V252.871H223.183C224.914 252.871 226.318 254.274 226.318 256.006V262.091H217.098Z" fill="#111111"/>
<path d="M244.204 252.871H234.984V262.091H244.204V252.871Z" fill="#111111"/>
<path d="M253.148 252.871H243.928V262.091H253.148V252.871Z" fill="#111111"/>
<path d="M288.922 252.871H279.702V262.091H288.922V252.871Z" fill="#111111"/>
<path d="M297.865 252.871H288.645V262.091H297.865V252.871Z" fill="#111111"/>
<path d="M306.808 252.871H297.588V262.091H306.808V252.871Z" fill="#111111"/>
<path d="M315.752 252.871H306.532V262.091H315.752V252.871Z" fill="#111111"/>
<path d="M315.475 262.091V256.006C315.475 254.274 316.879 252.871 318.61 252.871H321.56C323.292 252.871 324.695 254.274 324.695 256.006V262.091H315.475Z" fill="#111111"/>
<path d="M109.776 271.034V264.949C109.776 263.218 111.18 261.814 112.911 261.814H115.862C117.593 261.814 118.996 263.218 118.996 264.949V271.034H109.776Z" fill="#111111"/>
<path d="M125.127 270.85V271.035H127.939V268.223H127.755C127.755 269.679 126.574 270.85 125.127 270.85Z" fill="#111111"/>
<path d="M136.882 271.034H127.662V264.949C127.662 263.218 129.066 261.814 130.797 261.814H136.882V271.034Z" fill="#111111"/>
<path d="M145.826 261.814H136.606V271.034H145.826V261.814Z" fill="#111111"/>
<path d="M154.77 261.814H145.55V271.034H154.77V261.814Z" fill="#111111"/>
<path d="M163.713 261.814H154.493V271.034H163.713V261.814Z" fill="#111111"/>
<path d="M163.437 271.034V264.949C163.437 263.218 164.84 261.814 166.571 261.814H169.522C171.253 261.814 172.657 263.218 172.657 264.949V271.034H163.437Z" fill="#111111"/>
<path d="M178.788 270.85V271.035H181.6V268.223H181.416C181.416 269.679 180.236 270.85 178.788 270.85Z" fill="#111111"/>
<path d="M190.542 271.034H181.322V264.949C181.322 263.218 182.726 261.814 184.457 261.814H190.542V271.034Z" fill="#111111"/>
<path d="M190.267 271.034V264.949C190.267 263.218 191.671 261.814 193.402 261.814H196.352C198.084 261.814 199.487 263.218 199.487 264.949V271.034H190.267Z" fill="#111111"/>
<path d="M226.318 261.814H217.098V271.034H226.318V261.814Z" fill="#111111"/>
<path d="M232.449 270.85V271.035H235.261V268.223H235.076C235.076 269.679 233.896 270.85 232.449 270.85Z" fill="#111111"/>
<path d="M244.204 261.814H234.984V271.034H244.204V261.814Z" fill="#111111"/>
<path d="M253.148 261.814H243.928V271.034H253.148V261.814Z" fill="#111111"/>
<path d="M261.814 264.451V268.407C261.814 269.864 262.995 271.034 264.451 271.034H268.407C269.873 271.034 271.044 269.854 271.044 268.398V264.451C271.034 262.985 269.854 261.814 268.398 261.814H264.451C262.995 261.814 261.814 262.995 261.814 264.451Z" fill="#111111"/>
<path d="M288.922 261.814H279.702V271.034H288.922V261.814Z" fill="#111111"/>
<path d="M306.808 261.814H297.588V271.034H306.808V261.814Z" fill="#111111"/>
<path d="M315.752 261.814H306.532V271.034H315.752V261.814Z" fill="#111111"/>
<path d="M107.241 279.794V279.978H110.053V277.166H109.868C109.868 278.623 108.688 279.794 107.241 279.794Z" fill="#111111"/>
<path d="M118.996 270.758H109.776V279.978H118.996V270.758Z" fill="#111111"/>
<path d="M127.94 270.758H118.72V279.978H127.94V270.758Z" fill="#111111"/>
<path d="M127.663 270.758H136.883V276.844C136.883 278.575 135.48 279.978 133.748 279.978H127.663V270.758Z" fill="#111111"/>
<path d="M181.6 279.977H172.38V273.892C172.38 272.161 173.783 270.757 175.514 270.757H181.6V279.977Z" fill="#111111"/>
<path d="M190.544 270.758H181.324V279.978H190.544V270.758Z" fill="#111111"/>
<path d="M196.675 279.794V279.978H199.487V277.166H199.303C199.303 278.623 198.123 279.794 196.675 279.794Z" fill="#111111"/>
<path d="M199.21 279.977V273.892C199.21 272.161 200.614 270.757 202.345 270.757H205.296C207.027 270.757 208.43 272.161 208.43 273.892V279.977H199.21Z" fill="#111111"/>
<path d="M226.318 270.758H217.098V279.978H226.318V270.758Z" fill="#111111"/>
<path d="M235.261 270.758H226.041V279.978H235.261V270.758Z" fill="#111111"/>
<path d="M244.204 270.758H234.984V279.978H244.204V270.758Z" fill="#111111"/>
<path d="M253.148 270.758H243.928V279.978H253.148V270.758Z" fill="#111111"/>
<path d="M277.166 279.794V279.978H279.978V277.166H279.794C279.794 278.623 278.614 279.794 277.166 279.794Z" fill="#111111"/>
<path d="M288.922 270.758H279.702V279.978H288.922V270.758Z" fill="#111111"/>
<path d="M297.865 270.758H288.645V279.978H297.865V270.758Z" fill="#111111"/>
<path d="M306.808 270.758H297.588V279.978H306.808V270.758Z" fill="#111111"/>
<path d="M315.752 270.758H306.532V279.978H315.752V270.758Z" fill="#111111"/>
<path d="M315.475 279.977V270.757H321.56C323.292 270.757 324.695 272.161 324.695 273.892V279.977H315.475Z" fill="#111111"/>
<path d="M110.052 288.921H100.832V282.836C100.832 281.104 102.236 279.701 103.967 279.701H110.052V288.921Z" fill="#111111"/>
<path d="M118.996 279.702H109.776V288.922H118.996V279.702Z" fill="#111111"/>
<path d="M134.071 288.737V288.921H136.883V286.109H136.699C136.699 287.566 135.519 288.737 134.071 288.737Z" fill="#111111"/>
<path d="M136.606 288.921V282.836C136.606 281.104 138.009 279.701 139.741 279.701H142.691C144.422 279.701 145.826 281.104 145.826 282.836V288.921H136.606Z" fill="#111111"/>
<path d="M181.6 279.702V288.922H175.514C173.783 288.922 172.38 287.518 172.38 285.787V279.702H181.6Z" fill="#111111"/>
<path d="M190.544 279.702H181.324V288.922H190.544V279.702Z" fill="#111111"/>
<path d="M199.487 279.702H190.267V288.922H199.487V279.702Z" fill="#111111"/>
<path d="M199.21 279.702H208.43V285.787C208.43 287.518 207.027 288.922 205.296 288.922H199.21V279.702Z" fill="#111111"/>
<path d="M226.317 279.702V285.787C226.317 287.518 224.913 288.922 223.182 288.922H220.232C218.5 288.922 217.097 287.518 217.097 285.787V279.702H226.317Z" fill="#111111"/>
<path d="M253.147 279.702V288.922H247.062C245.33 288.922 243.927 287.518 243.927 285.787V279.702H253.147Z" fill="#111111"/>
<path d="M262.091 279.702H252.871V288.922H262.091V279.702Z" fill="#111111"/>
<path d="M271.034 279.702H261.814V288.922H271.034V279.702Z" fill="#111111"/>
<path d="M279.978 279.702H270.758V288.922H279.978V279.702Z" fill="#111111"/>
<path d="M288.922 279.702H279.702V288.922H288.922V279.702Z" fill="#111111"/>
<path d="M315.752 279.702H306.532V288.922H315.752V279.702Z" fill="#111111"/>
<path d="M315.475 279.702H324.695V285.787C324.695 287.518 323.292 288.922 321.56 288.922H315.475V279.702Z" fill="#111111"/>
<path d="M110.053 288.645H100.833V297.865H110.053V288.645Z" fill="#111111"/>
<path d="M109.776 288.645H118.996V294.73C118.996 296.462 117.593 297.865 115.862 297.865H109.776V288.645Z" fill="#111111"/>
<path d="M125.127 297.681V297.866H127.939V295.054H127.755C127.755 296.51 126.574 297.681 125.127 297.681Z" fill="#111111"/>
<path d="M136.882 297.864H127.662V291.779C127.662 290.048 129.066 288.644 130.797 288.644H136.882V297.864Z" fill="#111111"/>
<path d="M145.826 288.645H136.606V297.865H145.826V288.645Z" fill="#111111"/>
<path d="M154.77 288.645H145.55V297.865H154.77V288.645Z" fill="#111111"/>
<path d="M163.713 288.645H154.493V297.865H163.713V288.645Z" fill="#111111"/>
<path d="M163.437 297.864V291.779C163.437 290.048 164.84 288.644 166.571 288.644H169.522C171.253 288.644 172.657 290.048 172.657 291.779V297.864H163.437Z" fill="#111111"/>
<path d="M190.544 288.645H181.324V297.865H190.544V288.645Z" fill="#111111"/>
<path d="M235.261 297.864H229.176C227.444 297.864 226.041 296.461 226.041 294.729V291.779C226.041 290.048 227.444 288.644 229.176 288.644H235.261V297.864Z" fill="#111111"/>
<path d="M234.984 297.864V288.644H241.069C242.8 288.644 244.204 290.048 244.204 291.779V297.864H234.984Z" fill="#111111"/>
<path d="M262.091 288.645H252.871V297.865H262.091V288.645Z" fill="#111111"/>
<path d="M288.921 288.645V294.73C288.921 296.462 287.517 297.865 285.786 297.865H282.836C281.104 297.865 279.701 296.462 279.701 294.73V288.645H288.921Z" fill="#111111"/>
<path d="M306.808 297.864H300.723C298.992 297.864 297.588 296.461 297.588 294.729V291.779C297.588 290.048 298.992 288.644 300.723 288.644H306.808V297.864Z" fill="#111111"/>
<path d="M306.532 288.645H315.752V294.73C315.752 296.462 314.349 297.865 312.617 297.865H306.532V288.645Z" fill="#111111"/>
<path d="M110.052 297.588V303.673C110.052 305.404 108.649 306.808 106.917 306.808H103.967C102.236 306.808 100.832 305.404 100.832 303.673V297.588H110.052Z" fill="#111111"/>
<path d="M127.938 306.808H118.718V300.723C118.718 298.992 120.122 297.588 121.853 297.588H127.938V306.808Z" fill="#111111"/>
<path d="M136.883 297.588H127.663V306.808H136.883V297.588Z" fill="#111111"/>
<path d="M145.826 297.588H136.606V306.808H145.826V297.588Z" fill="#111111"/>
<path d="M154.77 297.588H145.55V306.808H154.77V297.588Z" fill="#111111"/>
<path d="M154.493 297.588H163.713V303.673C163.713 305.404 162.31 306.808 160.578 306.808H154.493V297.588Z" fill="#111111"/>
<path d="M178.788 306.624V306.808H181.6V303.996H181.416C181.416 305.453 180.236 306.624 178.788 306.624Z" fill="#111111"/>
<path d="M190.544 297.588H181.324V306.808H190.544V297.588Z" fill="#111111"/>
<path d="M214.562 306.624V306.808H217.374V303.996H217.189C217.189 305.453 216.009 306.624 214.562 306.624Z" fill="#111111"/>
<path d="M217.098 306.808V300.723C217.098 298.992 218.501 297.588 220.232 297.588H223.183C224.914 297.588 226.318 298.992 226.318 300.723V306.808H217.098Z" fill="#111111"/>
<path d="M244.204 297.588V303.673C244.204 305.404 242.8 306.808 241.069 306.808H238.118C236.387 306.808 234.984 305.404 234.984 303.673V297.588H244.204Z" fill="#111111"/>
<path d="M262.091 297.588H252.871V306.808H262.091V297.588Z" fill="#111111"/>
<path d="M261.814 306.808V297.588H267.9C269.631 297.588 271.034 298.992 271.034 300.723V306.808H261.814Z" fill="#111111"/>
<path d="M127.938 306.532V312.617C127.938 314.349 126.535 315.752 124.804 315.752H121.853C120.122 315.752 118.718 314.349 118.718 312.617V306.532H127.938Z" fill="#111111"/>
<path d="M172.657 315.751H166.572C164.84 315.751 163.437 314.348 163.437 312.617V309.666C163.437 307.935 164.84 306.531 166.572 306.531H172.657V315.751Z" fill="#111111"/>
<path d="M181.6 306.532H172.38V315.752H181.6V306.532Z" fill="#111111"/>
<path d="M190.544 306.532H181.324V315.752H190.544V306.532Z" fill="#111111"/>
<path d="M217.374 315.751H211.288C209.557 315.751 208.153 314.348 208.153 312.617V309.666C208.153 307.935 209.557 306.531 211.288 306.531H217.374V315.751Z" fill="#111111"/>
<path d="M226.318 306.532H217.098V315.752H226.318V306.532Z" fill="#111111"/>
<path d="M250.335 315.567V315.752H253.148V312.939H252.963C252.963 314.396 251.783 315.567 250.335 315.567Z" fill="#111111"/>
<path d="M262.091 306.532H252.871V315.752H262.091V306.532Z" fill="#111111"/>
<path d="M271.034 306.532H261.814V315.752H271.034V306.532Z" fill="#111111"/>
<path d="M270.758 315.751V309.666C270.758 307.935 272.162 306.531 273.893 306.531H276.844C278.575 306.531 279.978 307.935 279.978 309.666V315.751H270.758Z" fill="#111111"/>
<path d="M297.864 315.751H291.779C290.048 315.751 288.644 314.348 288.644 312.617V309.666C288.644 307.935 290.048 306.531 291.779 306.531H297.864V315.751Z" fill="#111111"/>
<path d="M297.588 315.751V309.666C297.588 307.935 298.991 306.531 300.723 306.531H303.673C305.404 306.531 306.808 307.935 306.808 309.666V315.751H297.588Z" fill="#111111"/>
<path d="M136.882 324.694H130.797C129.066 324.694 127.662 323.291 127.662 321.56V318.609C127.662 316.878 129.066 315.474 130.797 315.474H136.882V324.694Z" fill="#111111"/>
<path d="M145.826 315.475H136.606V324.695H145.826V315.475Z" fill="#111111"/>
<path d="M145.55 324.694V318.609C145.55 316.878 146.954 315.474 148.685 315.474H151.636C153.367 315.474 154.77 316.878 154.77 318.609V324.694H145.55Z" fill="#111111"/>
<path d="M181.6 315.475V324.695H175.514C173.783 324.695 172.38 323.292 172.38 321.56V315.475H181.6Z" fill="#111111"/>
<path d="M181.324 315.475H190.544V321.56C190.544 323.292 189.14 324.695 187.409 324.695H181.324V315.475Z" fill="#111111"/>
<path d="M226.317 315.475V321.56C226.317 323.292 224.913 324.695 223.182 324.695H220.232C218.5 324.695 217.097 323.292 217.097 321.56V315.475H226.317Z" fill="#111111"/>
<path d="M244.204 324.694H238.118C236.387 324.694 234.984 323.291 234.984 321.56V318.609C234.984 316.878 236.387 315.474 238.118 315.474H244.204V324.694Z" fill="#111111"/>
<path d="M253.148 315.475H243.928V324.695H253.148V315.475Z" fill="#111111"/>
<path d="M262.091 315.475H252.871V324.695H262.091V315.475Z" fill="#111111"/>
<path d="M261.814 315.475H271.034V321.56C271.034 323.292 269.631 324.695 267.9 324.695H261.814V315.475Z" fill="#111111"/>
<path d="M306.532 318.112V322.067C306.532 323.524 307.712 324.695 309.169 324.695H313.125C314.591 324.695 315.761 323.515 315.761 322.058V318.112C315.752 316.646 314.572 315.475 313.115 315.475H309.169C307.712 315.475 306.532 316.655 306.532 318.112Z" fill="#111111"/>
<path d="M84.6056 71.4511V51.6583C84.6056 42.873 83.4104 40.7293 82.8964 40.2142C82.3813 39.7002 80.2377 38.505 71.4511 38.505H51.6595C42.8729 38.505 40.7293 39.7002 40.2153 40.2142C39.7013 40.7293 38.505 42.873 38.505 51.6583V71.4511C38.505 80.2377 39.7013 82.3813 40.2153 82.8964C40.7293 83.4093 42.8729 84.6056 51.6595 84.6056H71.4511C80.2377 84.6056 82.3813 83.4093 82.8964 82.8964C83.4104 82.3813 84.6056 80.2377 84.6056 71.4511ZM71.4511 29.2852C89.5232 29.2852 93.8254 33.5874 93.8254 51.6583C93.8254 69.7304 93.8254 53.3802 93.8254 71.4511C93.8254 89.5232 89.5232 93.8254 71.4511 93.8254C53.3802 93.8254 69.7304 93.8254 51.6595 93.8254C33.5874 93.8254 29.2852 89.5232 29.2852 71.4511C29.2852 53.3802 29.2852 61.7506 29.2852 51.6583C29.2852 33.5874 33.5874 29.2852 51.6595 29.2852C69.7304 29.2852 53.3802 29.2852 71.4511 29.2852ZM65.7962 47.7252C73.5417 47.7252 75.3854 49.57 75.3854 57.3132C75.3854 65.0588 75.3854 58.0518 75.3854 65.7962C75.3854 73.5406 73.5417 75.3854 65.7962 75.3854C58.0518 75.3854 65.0588 75.3854 57.3144 75.3854C49.57 75.3854 47.7252 73.5406 47.7252 65.7962C47.7252 58.0518 47.7252 61.6388 47.7252 57.3132C47.7252 49.57 49.57 47.7252 57.3144 47.7252C65.0588 47.7252 58.0518 47.7252 65.7962 47.7252Z" fill="#111111"/>
<path d="M314.738 71.4511V51.6583C314.738 42.873 313.543 40.7293 313.029 40.2142C312.514 39.7002 310.37 38.505 301.583 38.505H281.792C273.005 38.505 270.862 39.7002 270.348 40.2142C269.834 40.7293 268.637 42.873 268.637 51.6583V71.4511C268.637 80.2377 269.834 82.3813 270.348 82.8964C270.862 83.4093 273.005 84.6056 281.792 84.6056H301.583C310.37 84.6056 312.514 83.4093 313.029 82.8964C313.543 82.3813 314.738 80.2377 314.738 71.4511ZM301.583 29.2852C319.656 29.2852 323.958 33.5874 323.958 51.6583C323.958 69.7304 323.958 53.3802 323.958 71.4511C323.958 89.5232 319.656 93.8254 301.583 93.8254C283.512 93.8254 299.863 93.8254 281.792 93.8254C263.72 93.8254 259.417 89.5232 259.417 71.4511C259.417 53.3802 259.417 61.7506 259.417 51.6583C259.417 33.5874 263.72 29.2852 281.792 29.2852C299.863 29.2852 283.512 29.2852 301.583 29.2852ZM295.929 47.7252C303.674 47.7252 305.518 49.57 305.518 57.3132C305.518 65.0588 305.518 58.0518 305.518 65.7962C305.518 73.5406 303.674 75.3854 295.929 75.3854C288.184 75.3854 295.191 75.3854 287.447 75.3854C279.702 75.3854 277.858 73.5406 277.858 65.7962C277.858 58.0518 277.858 61.6388 277.858 57.3132C277.858 49.57 279.702 47.7252 287.447 47.7252C295.191 47.7252 288.184 47.7252 295.929 47.7252Z" fill="#111111"/>
<path d="M84.6056 301.583V281.791C84.6056 273.005 83.4104 270.862 82.8964 270.346C82.3813 269.832 80.2377 268.637 71.4511 268.637H51.6595C42.8729 268.637 40.7293 269.832 40.2153 270.346C39.7013 270.862 38.505 273.005 38.505 281.791V301.583C38.505 310.37 39.7013 312.514 40.2153 313.029C40.7293 313.542 42.8729 314.738 51.6595 314.738H71.4511C80.2377 314.738 82.3813 313.542 82.8964 313.029C83.4104 312.514 84.6056 310.37 84.6056 301.583ZM71.4511 259.417C89.5232 259.417 93.8254 263.72 93.8254 281.791C93.8254 299.863 93.8254 283.512 93.8254 301.583C93.8254 319.656 89.5232 323.958 71.4511 323.958C53.3802 323.958 69.7304 323.958 51.6595 323.958C33.5874 323.958 29.2852 319.656 29.2852 301.583C29.2852 283.512 29.2852 291.883 29.2852 281.791C29.2852 263.72 33.5874 259.417 51.6595 259.417C69.7304 259.417 53.3802 259.417 71.4511 259.417ZM65.7962 277.858C73.5417 277.858 75.3854 279.702 75.3854 287.446C75.3854 295.191 75.3854 288.184 75.3854 295.929C75.3854 303.673 73.5417 305.518 65.7962 305.518C58.0518 305.518 65.0588 305.518 57.3144 305.518C49.57 305.518 47.7252 303.673 47.7252 295.929C47.7252 288.184 47.7252 291.771 47.7252 287.446C47.7252 279.702 49.57 277.858 57.3144 277.858C65.0588 277.858 58.0518 277.858 65.7962 277.858Z" fill="#111111"/>
<path d="M196.597 160.223C196.597 160.223 200.968 158.519 200.603 162.658C200.482 164.362 199.389 170.328 198.539 176.78L195.625 195.893C195.625 195.893 195.383 198.693 193.197 199.18C191.012 199.667 187.733 197.476 187.126 196.989C186.641 196.624 178.02 191.145 174.985 188.467C174.135 187.737 173.163 186.276 175.106 184.571L187.855 172.397C189.312 170.936 190.769 167.528 184.698 171.667L167.7 183.232C167.7 183.232 165.757 184.45 162.115 183.354L154.223 180.919C154.223 180.919 151.309 179.093 156.287 177.267C168.428 171.545 183.362 165.701 196.597 160.223Z" fill="#111111"/>
</g>
<defs>
<clipPath id="clip0_256_772">
<rect width="357" height="357" rx="4" fill="white"/>
</clipPath>
</defs>
</svg>
