<svg width="22" height="22" viewBox="0 0 22 22" fill="none" xmlns="http://www.w3.org/2000/svg">
<path d="M18.3334 2.75H3.66671C3.18048 2.75 2.71416 2.94315 2.37034 3.28697C2.02653 3.63079 1.83337 4.0971 1.83337 4.58333V6.41667C1.83531 6.73661 1.92093 7.05048 2.08174 7.32707C2.24256 7.60367 2.47295 7.83337 2.75004 7.99333V17.4167C2.75004 17.9029 2.94319 18.3692 3.28701 18.713C3.63083 19.0568 4.09714 19.25 4.58337 19.25H17.4167C17.9029 19.25 18.3693 19.0568 18.7131 18.713C19.0569 18.3692 19.25 17.9029 19.25 17.4167V7.99333C19.5271 7.83337 19.7575 7.60367 19.9183 7.32707C20.0792 7.05048 20.1648 6.73661 20.1667 6.41667V4.58333C20.1667 4.0971 19.9736 3.63079 19.6297 3.28697C19.2859 2.94315 18.8196 2.75 18.3334 2.75ZM3.66671 4.58333H18.3334V6.41667H3.66671V4.58333ZM4.58337 17.4167V8.25H17.4167V17.4167H4.58337Z" fill="#111111" fill-opacity="0.64"/>
<path d="M7.33337 10.0833H14.6667V11.9166H7.33337V10.0833Z" fill="#111111" fill-opacity="0.64"/>
</svg>
