<svg width="22" height="22" viewBox="0 0 22 22" fill="none" xmlns="http://www.w3.org/2000/svg">
<path d="M5.97306 13.1295L4.60723 19.0438C4.56494 19.2229 4.57763 19.4106 4.64366 19.5823C4.70969 19.7541 4.82599 19.9019 4.97735 20.0066C5.12872 20.1112 5.30813 20.1678 5.49214 20.1689C5.67615 20.17 5.85621 20.1155 6.00881 20.0127L11.0001 16.6852L15.9913 20.0127C16.1475 20.1164 16.3316 20.1697 16.519 20.1656C16.7064 20.1615 16.888 20.1001 17.0394 19.9897C17.1909 19.8793 17.3049 19.7252 17.3661 19.548C17.4273 19.3709 17.4328 19.1792 17.3819 18.9989L15.7053 13.1322L19.8633 9.39038C19.9965 9.27047 20.0916 9.11415 20.1369 8.94076C20.1821 8.76737 20.1756 8.58452 20.1181 8.41481C20.0605 8.2451 19.9545 8.09597 19.8131 7.98588C19.6717 7.87579 19.5011 7.80956 19.3225 7.79538L14.0966 7.37921L11.8351 2.37329C11.763 2.2121 11.6458 2.07523 11.4976 1.97918C11.3495 1.88314 11.1766 1.83203 11.0001 1.83203C10.8235 1.83203 10.6507 1.88314 10.5025 1.97918C10.3543 2.07523 10.2371 2.2121 10.165 2.37329L7.90356 7.37921L2.67765 7.79446C2.50207 7.80837 2.33421 7.87257 2.19416 7.97938C2.05411 8.08619 1.94779 8.23109 1.88793 8.39674C1.82808 8.56239 1.81721 8.74177 1.85663 8.91344C1.89605 9.0851 1.9841 9.24177 2.11023 9.36471L5.97306 13.1295ZM8.58832 9.16396C8.75188 9.15088 8.90894 9.09413 9.04309 8.99965C9.17724 8.90516 9.28357 8.77639 9.35098 8.62679L11.0001 4.97754L12.6491 8.62679C12.7166 8.77639 12.8229 8.90516 12.957 8.99965C13.0912 9.09413 13.2482 9.15088 13.4118 9.16396L17.0528 9.45271L14.0544 12.1514C13.7941 12.386 13.6905 12.7472 13.7858 13.0845L14.9344 17.1041L11.5097 14.8207C11.3594 14.7198 11.1825 14.6659 11.0014 14.6659C10.8204 14.6659 10.6435 14.7198 10.4931 14.8207L6.91448 17.2068L7.87698 13.0396C7.91227 12.8864 7.90754 12.7266 7.86323 12.5757C7.81892 12.4248 7.73653 12.2878 7.62398 12.178L4.83915 9.46279L8.58832 9.16396Z" fill="#111111" fill-opacity="0.64"/>
</svg>
