<svg width="22" height="22" viewBox="0 0 22 22" fill="none" xmlns="http://www.w3.org/2000/svg">
<path fill-rule="evenodd" clip-rule="evenodd" d="M14.3983 10.3517C14.5702 10.5236 14.6667 10.7567 14.6667 10.9998C14.6667 11.2428 14.5702 11.476 14.3983 11.6479L9.21273 16.8334C9.12817 16.921 9.02703 16.9908 8.91519 17.0389C8.80335 17.0869 8.68307 17.1122 8.56135 17.1132C8.43964 17.1143 8.31893 17.0911 8.20628 17.045C8.09362 16.9989 7.99127 16.9309 7.90521 16.8448C7.81914 16.7587 7.75107 16.6564 7.70498 16.5437C7.65889 16.4311 7.6357 16.3104 7.63675 16.1887C7.63781 16.0669 7.6631 15.9467 7.71114 15.8348C7.75918 15.723 7.82902 15.6218 7.91657 15.5373L12.4541 10.9998L7.91657 6.46227C7.74959 6.28938 7.65719 6.05783 7.65928 5.81748C7.66137 5.57714 7.75778 5.34723 7.92773 5.17727C8.09769 5.00731 8.3276 4.91091 8.56795 4.90882C8.8083 4.90673 9.03985 4.99912 9.21273 5.1661L14.3983 10.3517Z" fill="#111111"/>
</svg>
