<svg width="22" height="22" viewBox="0 0 22 22" fill="none" xmlns="http://www.w3.org/2000/svg">
<path d="M20.0037 6.81176C19.9193 6.68991 19.8068 6.59031 19.6755 6.52151C19.5443 6.4527 19.3983 6.41673 19.2502 6.41668H6.72208L5.66425 3.87751C5.52595 3.54284 5.29118 3.25691 4.98983 3.05612C4.68848 2.85532 4.33419 2.74877 3.97208 2.75001H1.8335V4.58334H3.97208L8.32075 15.0196C8.3904 15.1866 8.50791 15.3292 8.65847 15.4295C8.80903 15.5298 8.98591 15.5834 9.16683 15.5833H16.5002C16.8824 15.5833 17.2243 15.3459 17.3591 14.9893L20.1091 7.65601C20.1611 7.51725 20.1786 7.36795 20.1603 7.22091C20.1419 7.07388 20.0882 6.93349 20.0037 6.81176ZM15.8649 13.75H9.77825L7.48658 8.25001H17.9274L15.8649 13.75Z" fill="#111111"/>
<path d="M9.625 19.25C10.3844 19.25 11 18.6344 11 17.875C11 17.1156 10.3844 16.5 9.625 16.5C8.86561 16.5 8.25 17.1156 8.25 17.875C8.25 18.6344 8.86561 19.25 9.625 19.25Z" fill="#111111"/>
<path d="M16.0415 19.25C16.8009 19.25 17.4165 18.6344 17.4165 17.875C17.4165 17.1156 16.8009 16.5 16.0415 16.5C15.2821 16.5 14.6665 17.1156 14.6665 17.875C14.6665 18.6344 15.2821 19.25 16.0415 19.25Z" fill="#111111"/>
</svg>
