<svg width="22" height="22" viewBox="0 0 22 22" fill="none" xmlns="http://www.w3.org/2000/svg">
<path d="M5.97319 13.1295L4.60735 19.0438C4.56506 19.2229 4.57776 19.4106 4.64379 19.5823C4.70982 19.7541 4.82611 19.9019 4.97748 20.0066C5.12884 20.1112 5.30825 20.1678 5.49226 20.1689C5.67627 20.17 5.85634 20.1155 6.00894 20.0127L11.0002 16.6852L15.9914 20.0127C16.1476 20.1164 16.3317 20.1697 16.5191 20.1656C16.7065 20.1615 16.8881 20.1001 17.0395 19.9897C17.191 19.8793 17.305 19.7252 17.3662 19.548C17.4275 19.3709 17.433 19.1792 17.382 18.9989L15.7054 13.1322L19.8634 9.39038C19.9966 9.27047 20.0917 9.11415 20.137 8.94076C20.1823 8.76737 20.1757 8.58452 20.1182 8.41481C20.0606 8.2451 19.9546 8.09597 19.8132 7.98588C19.6718 7.87579 19.5012 7.80956 19.3226 7.79538L14.0967 7.37921L11.8353 2.37329C11.7632 2.2121 11.6459 2.07523 11.4978 1.97918C11.3496 1.88314 11.1768 1.83203 11.0002 1.83203C10.8236 1.83203 10.6508 1.88314 10.5026 1.97918C10.3544 2.07523 10.2372 2.2121 10.1651 2.37329L7.90369 7.37921L2.67777 7.79446C2.50219 7.80837 2.33433 7.87257 2.19428 7.97938C2.05423 8.08619 1.94791 8.23109 1.88806 8.39674C1.8282 8.56239 1.81733 8.74177 1.85675 8.91344C1.89618 9.0851 1.98422 9.24177 2.11035 9.36471L5.97319 13.1295ZM8.58844 9.16396C8.752 9.15088 8.90906 9.09413 9.04321 8.99965C9.17736 8.90516 9.28369 8.77639 9.3511 8.62679L11.0002 4.97754L12.6493 8.62679C12.7167 8.77639 12.823 8.90516 12.9572 8.99965C13.0913 9.09413 13.2484 9.15088 13.4119 9.16396L17.0529 9.45271L14.0545 12.1514C13.7942 12.386 13.6906 12.7472 13.7859 13.0845L14.9345 17.1041L11.5099 14.8207C11.3595 14.7198 11.1826 14.6659 11.0016 14.6659C10.8205 14.6659 10.6436 14.7198 10.4933 14.8207L6.9146 17.2068L7.8771 13.0396C7.9124 12.8864 7.90766 12.7266 7.86335 12.5757C7.81904 12.4248 7.73665 12.2878 7.6241 12.178L4.83927 9.46279L8.58844 9.16396Z" fill="#111111" fill-opacity="0.2"/>
</svg>
