<svg width="22" height="22" viewBox="0 0 22 22" fill="none" xmlns="http://www.w3.org/2000/svg">
<path d="M9.16683 16.4999C10.7939 16.4997 12.3741 15.955 13.6557 14.9526L17.6854 18.9823L18.9816 17.6861L14.9519 13.6564C15.9549 12.3747 16.4999 10.7941 16.5002 9.16659C16.5002 5.12317 13.2102 1.83325 9.16683 1.83325C5.12341 1.83325 1.8335 5.12317 1.8335 9.16659C1.8335 13.21 5.12341 16.4999 9.16683 16.4999ZM9.16683 3.66659C12.2001 3.66659 14.6668 6.13334 14.6668 9.16659C14.6668 12.1998 12.2001 14.6666 9.16683 14.6666C6.13358 14.6666 3.66683 12.1998 3.66683 9.16659C3.66683 6.13334 6.13358 3.66659 9.16683 3.66659Z" fill="#111111"/>
</svg>
