<svg width="59" height="18" viewBox="0 0 59 18" fill="none" xmlns="http://www.w3.org/2000/svg">
<g clip-path="url(#clip0_256_399)">
<path fill-rule="evenodd" clip-rule="evenodd" d="M9.245 13.3773H6.70088C2.73205 13.3773 5.6154 4.28221 8.95667 4.28221H12.9764C13.6209 4.28221 14.7573 4.41033 15.317 2.69011L16.182 0.0183105H10.6697C7.68463 0.0183105 5.36097 1.15291 3.68186 3.05611C0.781559 6.3135 -0.202167 11.4009 0.493228 13.8348C1.1547 16.0857 2.95255 17.568 5.76803 17.6046L7.95599 17.6229H10.6527L11.3142 15.4818C11.8061 13.9629 10.7036 13.3773 9.245 13.3773ZM40.2155 9.6075L41.0465 6.69783H32.176C30.7005 6.69783 30.039 7.13703 29.7846 8.052L28.9535 10.9617H37.824C39.2996 10.9617 39.9611 10.5225 40.2155 9.6075ZM27.6305 14.7315L26.7995 17.6412H35.67C37.1286 17.6412 37.807 17.202 38.0615 16.287L38.8925 13.3773H30.022C28.5634 13.3773 27.9019 13.8165 27.6305 14.7315ZM42.2846 2.94631L43.1159 0.0366103H34.2453C32.7697 0.0366103 32.1082 0.47581 31.8538 1.39081L31.0227 4.30052H39.8932C41.352 4.30052 42.0132 3.86132 42.2846 2.94631ZM28.8857 3.53192C28.5125 0.823513 27.1726 0.0366103 23.9161 0.0366103H17.9798L14.5198 10.9617H16.7078C18.0137 10.9617 18.6752 10.98 19.3706 8.96701L20.8123 4.28221H23.0172C24.8999 4.28221 24.4758 6.82593 23.526 9.29641C22.678 11.4741 21.2024 13.3956 19.4215 13.3956H15.741C14.2654 13.3956 13.587 13.8348 13.3156 14.7498L12.3997 17.6595H15.0965L17.7424 17.6412C20.083 17.6229 21.9995 17.4399 24.2384 15.2622C26.6129 12.9381 29.3605 6.9723 28.8857 3.53192ZM58.7029 0.0183105H53.5638L48.7299 5.56321C48.17 6.2037 47.5934 6.8442 47.0335 7.59453H46.9827L49.3911 0.0183105H45.2021L39.554 17.6412H43.7434L45.541 12.0963L47.4067 10.3944L48.8825 15.4086C49.3402 16.9641 49.8155 17.6412 50.8331 17.6412H54.0387L50.7481 7.79583L58.7029 0.0183105Z" fill="#00B33C"/>
</g>
<defs>
<clipPath id="clip0_256_399">
<rect width="59" height="18" fill="white"/>
</clipPath>
</defs>
</svg>
