<svg width="22" height="22" viewBox="0 0 22 22" fill="none" xmlns="http://www.w3.org/2000/svg">
<path d="M10.9999 17.4166C11.867 17.4166 12.659 17.3221 13.3814 17.159L11.7708 15.5484C11.5205 15.5676 11.2666 15.5832 10.9999 15.5832C6.09478 15.5832 4.19453 12.0577 3.73436 10.9999C4.07931 10.2285 4.54605 9.51755 5.1167 8.89431L3.8352 7.61281C2.42536 9.14089 1.89095 10.68 1.88086 10.7102C1.81803 10.8985 1.81803 11.1022 1.88086 11.2905C1.90011 11.351 4.00295 17.4166 10.9999 17.4166ZM10.9999 4.58322C9.31595 4.58322 7.9327 4.94622 6.77953 5.48247L3.39795 2.10181L2.10178 3.39797L18.6018 19.898L19.8979 18.6018L16.8555 15.5594C19.2517 13.771 20.1069 11.329 20.1198 11.2905C20.1826 11.1022 20.1826 10.8985 20.1198 10.7102C20.0996 10.6488 17.9968 4.58322 10.9999 4.58322ZM15.5575 14.2614L13.4675 12.1714C13.6417 11.8139 13.7499 11.4206 13.7499 10.9999C13.7499 9.49564 12.5041 8.24989 10.9999 8.24989C10.5791 8.24989 10.1859 8.35806 9.82928 8.53314L8.17195 6.87581C9.08193 6.56429 10.0381 6.40902 10.9999 6.41656C15.9049 6.41656 17.8052 9.94206 18.2654 10.9999C17.9885 11.6342 17.1965 13.1467 15.5575 14.2614Z" fill="#111111" fill-opacity="0.6"/>
</svg>
