<svg width="33" height="24" viewBox="0 0 33 24" fill="none" xmlns="http://www.w3.org/2000/svg">
<g clip-path="url(#clip0_256_461)">
<path d="M21.1078 0.741699C14.9171 0.741699 9.94238 5.74976 9.94238 11.8707C9.94238 18.0422 14.966 22.9998 21.1063 22.9998C27.2465 22.9998 32.2746 17.9917 32.2746 11.8707C32.2746 5.74976 27.248 0.741699 21.1078 0.741699ZM21.1078 16.0189C18.8241 16.0189 16.947 14.147 16.947 11.8707C16.947 9.59447 18.8241 7.72257 21.1078 7.72257C23.3914 7.72257 25.2693 9.59447 25.2693 11.8707C25.2181 14.147 23.3914 16.0189 21.1078 16.0189Z" fill="white"/>
<path d="M9.94197 3.9751V20.1626H5.98597L0.911133 3.9751H9.94197Z" fill="white"/>
</g>
<defs>
<clipPath id="clip0_256_461">
<rect width="32.5161" height="24" fill="white"/>
</clipPath>
</defs>
</svg>
