<svg width="22" height="22" viewBox="0 0 22 22" fill="none" xmlns="http://www.w3.org/2000/svg">
<path d="M18.9838 3.35012C18.9838 3.35012 20.7646 2.65574 20.6162 4.34208C20.5667 5.03647 20.1216 7.46678 19.7753 10.0955L18.5881 17.8824C18.5881 17.8824 18.4892 19.0232 17.5988 19.2216C16.7084 19.42 15.3729 18.5272 15.1255 18.3288C14.9276 18.18 11.4156 15.9481 10.1789 14.8569C9.83267 14.5593 9.43694 13.9642 10.2284 13.2698L15.4223 8.30998C16.0159 7.71478 16.6095 6.32603 14.1362 8.01238L7.211 12.7242C7.211 12.7242 6.41955 13.2202 4.93561 12.7738L1.72032 11.7818C1.72032 11.7818 0.533138 11.0379 2.56124 10.2939C7.50782 7.96274 13.5921 5.58202 18.9838 3.35012Z" fill="#111111"/>
</svg>
