<svg width="32" height="32" viewBox="0 0 32 32" fill="none" xmlns="http://www.w3.org/2000/svg">
<path d="M13.3337 29.3334V20.0001H10.667V12.0001C10.667 11.2668 10.9283 10.6392 11.451 10.1174C11.9737 9.59565 12.6012 9.33431 13.3337 9.33342H18.667C19.4003 9.33342 20.0283 9.59476 20.551 10.1174C21.0737 10.6401 21.3345 11.2676 21.3337 12.0001V20.0001H18.667V29.3334H13.3337ZM16.0003 8.00009C15.267 8.00009 14.6394 7.7392 14.1177 7.21742C13.5959 6.69565 13.3345 6.06765 13.3337 5.33342C13.3328 4.5992 13.5941 3.97165 14.1177 3.45076C14.6412 2.92987 15.2688 2.66853 16.0003 2.66676C16.7319 2.66498 17.3599 2.92631 17.8843 3.45076C18.4088 3.9752 18.6697 4.60276 18.667 5.33342C18.6643 6.06409 18.4034 6.69209 17.8843 7.21742C17.3652 7.74276 16.7372 8.00365 16.0003 8.00009Z" fill="#111111"/>
</svg>
