<svg width="32" height="32" viewBox="0 0 32 32" fill="none" xmlns="http://www.w3.org/2000/svg">
<path d="M13.333 29.3334V21.3334H9.33301L13.3997 11.0668C13.6219 10.5334 13.9663 10.1112 14.433 9.80009C14.8997 9.48898 15.4219 9.33342 15.9997 9.33342C16.5775 9.33342 17.0997 9.48898 17.5663 9.80009C18.033 10.1112 18.3775 10.5334 18.5997 11.0668L22.6663 21.3334H18.6663V29.3334H13.333ZM15.9997 8.00009C15.2663 8.00009 14.6388 7.7392 14.117 7.21742C13.5952 6.69565 13.3339 6.06765 13.333 5.33342C13.3321 4.5992 13.5935 3.97165 14.117 3.45076C14.6406 2.92987 15.2681 2.66853 15.9997 2.66676C16.7312 2.66498 17.3592 2.92631 17.8837 3.45076C18.4081 3.9752 18.669 4.60276 18.6663 5.33342C18.6637 6.06409 18.4028 6.69209 17.8837 7.21742C17.3646 7.74276 16.7366 8.00365 15.9997 8.00009Z" fill="#111111"/>
</svg>
